<?xml version="1.0" encoding="utf-8"?>
<!-- Generator: Adobe Illustrator 16.0.0, SVG Export Plug-In . SVG Version: 6.00 Build 0)  -->
<!DOCTYPE svg PUBLIC "-//W3C//DTD SVG 1.1//EN" "http://www.w3.org/Graphics/SVG/1.1/DTD/svg11.dtd">
<svg version="1.1" id="Layer_1" xmlns="http://www.w3.org/2000/svg" xmlns:xlink="http://www.w3.org/1999/xlink" x="0px" y="0px"
	 width="720px" height="144px" viewBox="0 0 720 144" enable-background="new 0 0 720 144" xml:space="preserve">
<g>
	<g>
		<g>
			<g>
				
					<linearGradient id="SVGID_1_" gradientUnits="userSpaceOnUse" x1="-29.6289" y1="-117.3213" x2="-30.0184" y2="-117.6264" gradientTransform="matrix(0.54 0 0 -0.54 93.3398 57.6997)">
					<stop  offset="0" style="stop-color:#9BDAED"/>
					<stop  offset="0.6144" style="stop-color:#378AB8"/>
					<stop  offset="1" style="stop-color:#005492"/>
				</linearGradient>
				<path fill="url(#SVGID_1_)" d="M76.732,120.73c0.383,0.286,0.671,0.48,1.055,0.769C77.403,121.306,77.115,121.017,76.732,120.73
					z"/>
				
					<linearGradient id="SVGID_2_" gradientUnits="userSpaceOnUse" x1="-28.8008" y1="-118.1475" x2="-28.8008" y2="-118.1475" gradientTransform="matrix(0.54 0 0 -0.54 93.3398 57.6997)">
					<stop  offset="0" style="stop-color:#9BDAED"/>
					<stop  offset="0.6144" style="stop-color:#378AB8"/>
					<stop  offset="1" style="stop-color:#005492"/>
				</linearGradient>
				<path fill="url(#SVGID_2_)" d="M77.788,121.499L77.788,121.499L77.788,121.499z"/>
				
					<linearGradient id="SVGID_3_" gradientUnits="userSpaceOnUse" x1="-4.3809" y1="-39.2988" x2="-5.4027" y2="-40.0999" gradientTransform="matrix(0.54 0 0 -0.54 93.3398 57.6997)">
					<stop  offset="0" style="stop-color:#9BDAED"/>
					<stop  offset="0.6144" style="stop-color:#378AB8"/>
					<stop  offset="1" style="stop-color:#005492"/>
				</linearGradient>
				<path fill="url(#SVGID_3_)" d="M90.35,77.863c0.191,0.863,0.479,1.63,0.767,2.494c-0.096-0.387-0.288-0.77-0.384-1.152
					C90.542,78.727,90.446,78.246,90.35,77.863z"/>
				
					<linearGradient id="SVGID_4_" gradientUnits="userSpaceOnUse" x1="11.3145" y1="11.0425" x2="10.3773" y2="10.308" gradientTransform="matrix(0.54 0 0 -0.54 93.3398 57.6997)">
					<stop  offset="0" style="stop-color:#9BDAED"/>
					<stop  offset="0.6144" style="stop-color:#378AB8"/>
					<stop  offset="1" style="stop-color:#005492"/>
				</linearGradient>
				<path fill="url(#SVGID_4_)" d="M98.886,52.162c0.191-0.192,0.383-0.288,0.671-0.48C99.365,51.777,99.173,51.97,98.886,52.162z"
					/>
				
					<linearGradient id="SVGID_5_" gradientUnits="userSpaceOnUse" x1="13.2271" y1="12.3135" x2="12.2097" y2="11.516" gradientTransform="matrix(0.54 0 0 -0.54 93.3398 57.6997)">
					<stop  offset="0" style="stop-color:#9BDAED"/>
					<stop  offset="0.6144" style="stop-color:#378AB8"/>
					<stop  offset="1" style="stop-color:#005492"/>
				</linearGradient>
				<path fill="url(#SVGID_5_)" d="M99.844,51.491c0.288-0.192,0.479-0.288,0.767-0.48C100.324,51.106,100.132,51.299,99.844,51.491
					z"/>
				
					<linearGradient id="SVGID_6_" gradientUnits="userSpaceOnUse" x1="64.3315" y1="12.1758" x2="64.0272" y2="11.9376" gradientTransform="matrix(0.54 0 0 -0.54 93.3398 57.6997)">
					<stop  offset="0" style="stop-color:#9BDAED"/>
					<stop  offset="0.6144" style="stop-color:#378AB8"/>
					<stop  offset="1" style="stop-color:#005492"/>
				</linearGradient>
				<path fill="url(#SVGID_6_)" d="M127.655,50.916c0.288,0.19,0.479,0.288,0.768,0.479
					C128.134,51.299,127.943,51.106,127.655,50.916z"/>
				
					<linearGradient id="SVGID_7_" gradientUnits="userSpaceOnUse" x1="66.1885" y1="10.7529" x2="65.9536" y2="10.5689" gradientTransform="matrix(0.54 0 0 -0.54 93.3398 57.6997)">
					<stop  offset="0" style="stop-color:#9BDAED"/>
					<stop  offset="0.6144" style="stop-color:#378AB8"/>
					<stop  offset="1" style="stop-color:#005492"/>
				</linearGradient>
				<path fill="url(#SVGID_7_)" d="M128.71,51.682c0.192,0.192,0.383,0.289,0.671,0.48C129.093,51.97,128.902,51.777,128.71,51.682z
					"/>
				
					<linearGradient id="SVGID_8_" gradientUnits="userSpaceOnUse" x1="82.772" y1="-38.7368" x2="80.3064" y2="-40.669" gradientTransform="matrix(0.54 0 0 -0.54 93.3398 57.6997)">
					<stop  offset="0" style="stop-color:#9BDAED"/>
					<stop  offset="0.6144" style="stop-color:#378AB8"/>
					<stop  offset="1" style="stop-color:#005492"/>
				</linearGradient>
				<path fill="url(#SVGID_8_)" d="M137.149,80.26c0.289-0.767,0.576-1.631,0.767-2.492c-0.095,0.384-0.191,0.861-0.383,1.248
					C137.438,79.493,137.245,79.877,137.149,80.26z"/>
				
					<linearGradient id="SVGID_9_" gradientUnits="userSpaceOnUse" x1="37.7695" y1="-70.7549" x2="36.6426" y2="-71.638" gradientTransform="matrix(0.54 0 0 -0.54 93.3398 57.6997)">
					<stop  offset="0" style="stop-color:#9BDAED"/>
					<stop  offset="0.6144" style="stop-color:#378AB8"/>
					<stop  offset="1" style="stop-color:#005492"/>
				</linearGradient>
				<path fill="url(#SVGID_9_)" d="M114.133,96.084c-0.383,0-0.863,0-1.247,0C113.271,96.084,113.654,96.084,114.133,96.084z"/>
				
					<linearGradient id="SVGID_10_" gradientUnits="userSpaceOnUse" x1="40.1182" y1="-70.7246" x2="38.946" y2="-71.6434" gradientTransform="matrix(0.54 0 0 -0.54 93.3398 57.6997)">
					<stop  offset="0" style="stop-color:#9BDAED"/>
					<stop  offset="0.6144" style="stop-color:#378AB8"/>
					<stop  offset="1" style="stop-color:#005492"/>
				</linearGradient>
				<path fill="url(#SVGID_10_)" d="M115.38,96.084c-0.384,0-0.864,0-1.247,0C114.517,96.084,114.996,96.084,115.38,96.084z"/>
				<path fill="#3CA1A0" d="M115.764,9.679c-0.576,0-1.055,0-1.63,0c-13.426,0-25.51,6.136-33.47,15.822
					c-6.138,7.48-9.781,16.976-9.781,27.428c0,1.535,0.096,3.068,0.288,4.603c0.959,9.303,4.986,17.742,10.932,24.359
					c4.411,4.891,10.07,8.824,16.304,11.221c4.507,1.726,9.398,2.782,14.48,2.973c-9.973-0.479-18.317-6.904-21.769-15.824
					c-0.288-0.767-0.576-1.631-0.767-2.492c-1.439-4.89-1.918-9.783-1.63-14.577c0.383-6.714,2.397-13.234,5.658-18.989
					c4.411-7.673,11.22-14.097,19.756-17.933c1.438-0.671,2.877-1.151,4.315-1.63c9.878-3.26,20.139-2.686,29.058,0.862
					c11.604,4.508,21.193,14.099,25.413,26.853c0,0.098,0.097,0.193,0.097,0.289l0,0C165.152,28.188,142.616,10.445,115.764,9.679z"
					/>
				
					<linearGradient id="SVGID_11_" gradientUnits="userSpaceOnUse" x1="27.0171" y1="27.3584" x2="154.0962" y2="-64.23" gradientTransform="matrix(0.54 0 0 -0.54 93.3398 57.6997)">
					<stop  offset="0" style="stop-color:#5BBFC5"/>
					<stop  offset="0.3943" style="stop-color:#3DBEB3"/>
					<stop  offset="1" style="stop-color:#32BA99"/>
				</linearGradient>
				<path fill="url(#SVGID_11_)" d="M173.017,52.642L173.017,52.642L173.017,52.642c0-0.096-0.097-0.191-0.097-0.191
					c-4.122-12.852-13.713-22.345-25.413-26.853c-9.015-3.548-19.18-4.029-29.057-0.864c-1.535,0.479-2.973,1.055-4.316,1.631
					c-8.536,3.836-15.345,10.165-19.756,17.933c-3.26,5.754-5.274,12.275-5.658,18.989c-0.288,4.794,0.288,9.781,1.63,14.577
					c-0.575-2.014-0.863-4.123-0.863-6.33c0-7.864,3.644-14.863,9.399-19.371c0.191-0.192,0.383-0.288,0.671-0.48
					c0,0,0.095,0,0.095-0.095c0.097-0.096,0.097-0.096,0.193-0.192c0.288-0.191,0.479-0.383,0.767-0.479
					c4.22-2.877,8.823-4.988,13.522-6.233c6.521-1.728,13.33-1.823,19.755-0.48c8.727,1.823,16.878,6.33,23.209,13.33
					c1.055,1.151,2.013,2.302,2.972,3.644c6.138,8.441,8.728,18.318,8.151,27.91c0.191-0.288,0.384-0.672,0.577-0.959
					c-0.193,0.287-0.385,0.671-0.577,0.959c-0.671,12.081-6.425,23.782-16.687,31.646c14.865-11.318,24.456-29.153,24.456-49.197
					C175.989,64.917,174.935,58.586,173.017,52.642z"/>
				
					<linearGradient id="SVGID_12_" gradientUnits="userSpaceOnUse" x1="-27.522" y1="-118.7764" x2="-28.0133" y2="-119.1615" gradientTransform="matrix(0.54 0 0 -0.54 93.3398 57.6997)">
					<stop  offset="0" style="stop-color:#9BDAED"/>
					<stop  offset="0.6144" style="stop-color:#378AB8"/>
					<stop  offset="1" style="stop-color:#005492"/>
				</linearGradient>
				<path fill="url(#SVGID_12_)" d="M78.938,122.36c-0.384-0.288-0.767-0.575-1.15-0.861
					C78.171,121.785,78.554,122.072,78.938,122.36z"/>
				<path fill="#3CA1A0" d="M160.07,61.175c-0.959-1.245-1.917-2.492-2.972-3.644c-6.331-7-14.482-11.507-23.209-13.33
					c-6.521-1.343-13.235-1.247-19.755,0.48c-4.699,1.245-9.303,3.26-13.522,6.233c3.836-2.589,8.536-4.029,13.522-4.029
					s9.686,1.534,13.521,4.029c0.288,0.19,0.479,0.288,0.768,0.479c0.096,0.097,0.096,0.097,0.192,0.192c0,0,0.096,0,0.096,0.095
					c0.192,0.192,0.479,0.289,0.671,0.48c4.125,3.164,7.576,6.904,10.262,11.125c3.644,5.657,5.85,12.083,6.617,18.701
					c0.959,8.823-0.767,18.028-5.466,26.18c-0.767,1.344-1.63,2.589-2.493,3.934c-6.139,8.438-14.673,14-24.071,16.397
					c-11.604,3.07-24.455,1.247-35.1-6.042c9.973,6.906,22.057,10.934,35.1,10.934c13.042,0,25.126-4.027,35.1-10.934
					c0.383-0.286,0.767-0.574,1.149-0.862l0,0c10.933-7.961,16.976-19.948,17.742-32.414
					C168.797,79.493,166.111,69.519,160.07,61.175z"/>
				
					<linearGradient id="SVGID_13_" gradientUnits="userSpaceOnUse" x1="11.9492" y1="11.5654" x2="11.5273" y2="11.2347" gradientTransform="matrix(0.54 0 0 -0.54 93.3398 57.6997)">
					<stop  offset="0" style="stop-color:#9BDAED"/>
					<stop  offset="0.6144" style="stop-color:#378AB8"/>
					<stop  offset="1" style="stop-color:#005492"/>
				</linearGradient>
				<path fill="url(#SVGID_13_)" d="M99.651,51.587C99.651,51.587,99.557,51.587,99.651,51.587c0,0,0.097-0.096,0.193-0.192
					C99.748,51.491,99.748,51.491,99.651,51.587z"/>
				
					<linearGradient id="SVGID_14_" gradientUnits="userSpaceOnUse" x1="-76.0415" y1="-61.4829" x2="98.2959" y2="-61.4829" gradientTransform="matrix(0.54 0 0 -0.54 93.3398 57.6997)">
					<stop  offset="0" style="stop-color:#5BBFC5"/>
					<stop  offset="0.3943" style="stop-color:#3DBEB3"/>
					<stop  offset="1" style="stop-color:#32BA99"/>
				</linearGradient>
				<path fill="url(#SVGID_14_)" d="M146.164,81.891c-0.671-6.617-2.973-13.042-6.618-18.7c-2.685-4.125-6.137-7.96-10.261-11.125
					c5.753,4.506,9.399,11.508,9.399,19.372c0,2.205-0.288,4.314-0.863,6.33c-0.193,0.861-0.479,1.631-0.767,2.492
					c-1.728,4.796-4.22,9.111-7.289,12.852c-4.315,5.179-9.685,9.304-15.728,11.987c-8.151,3.643-17.358,4.795-26.564,2.877
					c-1.534-0.288-2.973-0.671-4.507-1.152c-9.878-3.26-17.837-9.686-23.016-17.738C53.237,78.535,51.03,65.3,55.25,52.451l0,0
					c-1.918,6.04-2.973,12.371-2.973,19.083c0,20.141,9.589,37.978,24.455,49.197c0.383,0.286,0.671,0.48,1.054,0.769l0,0
					c10.934,7.958,24.264,9.971,36.347,6.81c9.302-2.399,17.934-7.962,24.07-16.4c0.959-1.247,1.728-2.589,2.494-3.933
					C145.396,99.921,147.124,90.811,146.164,81.891z M60.237,91.386C60.237,91.289,60.237,91.289,60.237,91.386
					C60.237,91.289,60.237,91.289,60.237,91.386z M64.84,106.632c0-0.096-0.096-0.191-0.096-0.286
					C64.84,106.44,64.84,106.536,64.84,106.632z M63.882,104.524c0-0.099-0.096-0.191-0.096-0.29
					C63.786,104.333,63.882,104.426,63.882,104.524z M63.018,102.415c0-0.097-0.095-0.194-0.095-0.288
					C62.922,102.221,62.922,102.318,63.018,102.415z M62.251,100.304c0-0.095-0.096-0.191-0.096-0.288
					C62.155,100.112,62.155,100.209,62.251,100.304z M61.58,98.098c0-0.096,0-0.191-0.096-0.191
					C61.484,97.906,61.484,98.002,61.58,98.098z M61.004,95.894c0-0.098,0-0.098,0-0.192C61.004,95.701,61.004,95.796,61.004,95.894
					z M60.525,93.591c0-0.096,0-0.096,0-0.191C60.525,93.495,60.525,93.591,60.525,93.591z M65.895,108.358
					c0,0.097,0.096,0.193,0.096,0.193S65.895,108.455,65.895,108.358z M67.046,110.373c0,0.097,0.096,0.097,0.096,0.191
					C67.142,110.47,67.142,110.373,67.046,110.373z M68.389,112.291c0,0.097,0.096,0.097,0.096,0.193
					C68.485,112.388,68.485,112.291,68.389,112.291z M69.827,114.114c0,0.095,0.096,0.095,0.096,0.191
					C69.923,114.209,69.923,114.114,69.827,114.114z M71.457,115.839l0.096,0.095C71.457,115.934,71.457,115.934,71.457,115.839z
					 M73.087,117.566C73.087,117.566,73.184,117.662,73.087,117.566C73.184,117.662,73.087,117.566,73.087,117.566z"/>
				
					<linearGradient id="SVGID_15_" gradientUnits="userSpaceOnUse" x1="65.1606" y1="11.5098" x2="65.0373" y2="11.4133" gradientTransform="matrix(0.54 0 0 -0.54 93.3398 57.6997)">
					<stop  offset="0" style="stop-color:#9BDAED"/>
					<stop  offset="0.6144" style="stop-color:#378AB8"/>
					<stop  offset="1" style="stop-color:#005492"/>
				</linearGradient>
				<path fill="url(#SVGID_15_)" d="M128.614,51.587c-0.096-0.096-0.096-0.096-0.192-0.192
					C128.518,51.491,128.614,51.587,128.614,51.587L128.614,51.587z"/>
				<g>
					
						<linearGradient id="SVGID_16_" gradientUnits="userSpaceOnUse" x1="50.1631" y1="-55.918" x2="-84.808" y2="98.5885" gradientTransform="matrix(0.54 0 0 -0.54 93.3398 57.6997)">
						<stop  offset="0" style="stop-color:#8EC641"/>
						<stop  offset="0.6015" style="stop-color:#38A749"/>
						<stop  offset="1" style="stop-color:#019547"/>
					</linearGradient>
					<path fill="url(#SVGID_16_)" d="M55.25,52.451c7.864-24.36,30.401-42.101,57.253-42.772c0.574,0,1.054,0,1.63,0
						c-0.576,0-1.055,0-1.63,0C99.651,10.158,88.336,16.2,80.664,25.5c-6.138,7.48-9.781,16.976-9.781,27.428
						c0,1.535,0.096,3.07,0.288,4.603c0.959,9.303,4.987,17.742,10.932,24.359c4.411,4.892,10.07,8.824,16.304,11.221
						c4.507,1.726,9.398,2.782,14.48,2.973c0.384,0,0.864,0,1.247,0s0.863,0,1.247,0c9.974-0.479,18.317-6.904,21.769-15.824
						c-1.725,4.796-4.219,9.111-7.288,12.852c-4.315,5.179-9.686,9.304-15.728,11.987c-8.151,3.643-17.358,4.795-26.564,2.877
						c-1.535-0.288-2.973-0.671-4.508-1.152c-9.877-3.26-17.837-9.685-23.016-17.738C53.333,78.535,51.126,65.3,55.25,52.451
						C55.346,52.451,55.346,52.451,55.25,52.451z"/>
					
						<linearGradient id="SVGID_17_" gradientUnits="userSpaceOnUse" x1="49.2861" y1="-56.687" x2="-85.685" y2="97.8194" gradientTransform="matrix(0.54 0 0 -0.54 93.3398 57.6997)">
						<stop  offset="0" style="stop-color:#5BBFC5"/>
						<stop  offset="0.3943" style="stop-color:#3DBEB3"/>
						<stop  offset="1" style="stop-color:#32BA99"/>
					</linearGradient>
					<path fill="url(#SVGID_17_)" d="M60.045,89.085c5.179,8.149,13.139,14.575,23.016,17.738c1.535,0.481,2.973,0.864,4.508,1.152
						c9.207,1.918,18.413,0.766,26.564-2.877c6.042-2.684,11.412-6.809,15.728-11.987c3.069-3.74,5.563-8.056,7.288-12.852
						c-3.356,8.92-11.795,15.249-21.769,15.824c-0.384,0-0.864,0-1.247,0s-0.863,0-1.247,0c-5.083-0.19-9.973-1.149-14.48-2.973
						c-6.33-2.493-11.891-6.329-16.304-11.221c-5.945-6.617-9.973-15.056-10.932-24.359c-0.191-1.535-0.288-3.068-0.288-4.603
						c0-10.357,3.645-19.948,9.781-27.428c7.576-9.301,18.989-15.343,31.84-15.822C85.747,10.35,63.114,28.09,55.25,52.451l0,0
						C51.126,65.3,53.333,78.535,60.045,89.085z"/>
				</g>
			</g>
		</g>
		<g>
			<path fill="#FFFFFF" d="M207.349,100.495V51.395h-17.646v-4.315c0-1.726,0.576-3.165,1.823-4.412
				c1.248-1.248,2.685-1.821,4.41-1.821h41.24v10.548h-17.55v49.101H207.349z"/>
			<path fill="#FFFFFF" d="M279.657,54.366v27.045c0,8.246-2.11,13.617-6.425,16.112c-4.315,2.589-8.92,3.834-14.001,3.834
				c-4.988-0.191-9.494-1.631-13.619-4.123c-4.123-2.589-6.137-7.767-6.137-15.823V54.366h12.178v29.442
				c0,2.782,0.769,4.795,2.399,6.042c1.63,1.247,3.452,1.918,5.562,1.918c2.111,0,3.932-0.671,5.658-1.918
				c1.631-1.247,2.493-3.26,2.493-6.042V60.217c0-1.63,0.576-2.973,1.63-4.123c1.054-1.151,2.494-1.728,4.22-1.728H279.657z"/>
			<path fill="#FFFFFF" d="M282.918,100.495V78.151c0-4.509,0.67-8.249,2.013-11.317c1.342-3.07,3.165-5.562,5.467-7.385
				c2.205-1.725,4.795-2.973,7.673-3.836c2.972-0.766,5.945-1.247,9.109-1.247c0.191,0,0.479,0,0.864,0c0.383,0,0.669,0,0.862,0
				v12.275h-4.028c-3.357,0-5.849,0.769-7.479,2.399c-1.63,1.63-2.398,4.123-2.398,7.67v23.784H282.918z"/>
			<path fill="#FFFFFF" d="M351.774,100.495h-6.041c-1.725,0-3.165-0.574-4.22-1.63c-1.054-1.054-1.63-2.493-1.63-4.22V71.054
				c0-2.781-0.864-4.795-2.494-6.043c-1.631-1.247-3.549-1.917-5.658-1.917c-2.11,0-3.933,0.671-5.563,1.917
				c-1.63,1.248-2.397,3.262-2.397,6.043v29.441h-12.179V73.451c0-7.863,2.015-13.138,6.138-15.822
				c4.125-2.686,8.632-4.125,13.617-4.317c5.084,0,9.784,1.343,14.004,4.029c4.314,2.685,6.424,8.054,6.424,16.11V100.495z"/>
			<path fill="#FFFFFF" d="M362.229,96.276c-2.398-2.11-4.125-4.891-5.179-8.438c-1.055-3.55-1.535-7.192-1.535-11.028
				c0-3.167,0.48-6.236,1.342-9.399c0.864-3.165,2.206-5.754,4.029-7.769c2.974-3.453,6.905-5.561,11.604-6.138
				c4.7-0.671,9.014-0.287,12.852,1.15c4.411,1.727,7.672,4.7,9.686,9.015C396.944,67.506,398,71.918,398,77
				c0,3.74-0.385,6.905-1.249,9.494c-0.766,2.686-1.82,4.892-3.163,6.81c-2.782,3.835-6.329,6.232-10.55,7.097
				c-3.836,1.054-7.672,1.149-11.508,0.286C367.694,99.826,364.625,98.386,362.229,96.276z M370.569,65.781
				c-2.396,2.684-3.547,6.615-3.26,11.889c0.191,5.276,1.246,8.921,2.975,11.028c0.672,0.959,1.916,1.727,3.644,2.304
				c1.726,0.672,3.452,0.672,5.274,0.192s3.356-1.823,4.797-3.933c1.342-2.109,2.107-5.466,2.205-10.069
				c0-4.125-0.672-7.29-2.016-9.398c-1.344-2.111-2.875-3.453-4.604-4.029c-1.725-0.574-3.451-0.574-5.178-0.095
				C372.681,64.341,371.435,65.011,370.569,65.781z"/>
			<path fill="#FFFFFF" d="M424.085,100.495h-12.277l-16.11-46.129h12.851l9.205,32.416l8.153-28.292
				c0.959-2.779,2.782-4.125,5.561-4.125h9.016L424.085,100.495z"/>
			<path fill="#FFFFFF" d="M474.528,86.207h8.63c-1.246,4.891-3.74,8.533-7.287,11.125c-3.549,2.684-8.056,4.025-13.523,4.025
				c-6.617,0-11.698-2.109-15.439-6.423c-3.739-4.124-5.562-10.07-5.562-17.839c0-7.384,1.823-13.138,5.371-17.358
				c3.739-4.315,8.823-6.426,15.439-6.426c6.906,0,12.275,2.111,16.111,6.233c3.739,4.317,5.562,10.262,5.562,17.837
				c0,0.48,0,0.863,0,1.246s0,0.576,0,0.672c0,0.576-0.097,0.959-0.193,1.248h-30.016c0.097,3.547,0.96,6.232,2.59,7.96
				c1.532,1.819,3.739,2.78,6.81,2.78c1.918,0,3.643-0.383,4.984-1.247c0.384-0.097,0.673-0.286,0.961-0.574
				c0.286-0.288,0.574-0.576,0.959-0.959c0.095-0.383,0.574-0.768,1.342-1.344C472.131,86.591,473.185,86.207,474.528,86.207z
				 M453.718,72.684h17.646c-0.191-3.165-1.056-5.466-2.397-6.903c-1.533-1.631-3.645-2.399-6.427-2.399
				c-2.589,0-4.603,0.769-6.232,2.399C454.771,67.411,453.909,69.711,453.718,72.684z"/>
			<path fill="#FFFFFF" d="M487.282,100.495V78.151c0-4.509,0.671-8.249,2.013-11.317c1.344-3.07,3.167-5.562,5.468-7.385
				c2.206-1.725,4.795-2.973,7.67-3.836c2.975-0.766,5.947-1.247,9.113-1.247c0.19,0,0.479,0,0.862,0s0.671,0,0.862,0v12.275h-4.028
				c-3.355,0-5.848,0.769-7.479,2.399c-1.632,1.63-2.397,4.123-2.397,7.67v23.784H487.282z"/>
			<path fill="#FFFFFF" d="M517.298,100.495V47.079c0-1.726,0.576-3.165,1.823-4.412c1.247-1.248,2.686-1.821,4.412-1.821h21.864
				c6.138,0,10.838,1.247,14.001,3.836c3.262,2.78,4.892,6.521,4.892,11.314c0,2.975-0.673,5.564-1.919,7.673
				c-1.244,2.014-3.067,3.549-5.37,4.7c2.974,1.247,5.274,3.068,6.906,5.371c1.533,2.205,2.299,5.082,2.299,8.63
				c0,5.756-1.819,10.264-5.561,13.523c-3.836,3.162-9.206,4.698-16.112,4.698h-27.235V100.495z M529.095,63.862h14.002
				c2.974,0,5.179-0.481,6.616-1.536c1.344-1.055,2.11-2.685,2.11-4.891c0-2.206-0.671-3.836-2.11-4.89
				c-1.15-0.959-3.451-1.342-6.81-1.342H529v12.659H529.095z M529.095,89.756h14.578c3.26,0,5.753-0.671,7.479-1.918
				c1.63-1.152,2.396-3.167,2.396-5.851c0-2.782-0.767-4.795-2.396-6.042c-1.536-1.15-4.028-1.727-7.673-1.727h-14.385V89.756z"/>
			<path fill="#FFFFFF" d="M610.227,100.495h-6.042c-1.727,0-3.163-0.574-4.22-1.63c-1.056-1.054-1.63-2.493-1.63-4.22V71.054
				c0-2.781-0.862-4.795-2.493-6.043c-1.63-1.247-3.549-1.917-5.658-1.917s-3.933,0.671-5.562,1.917
				c-1.63,1.248-2.397,3.262-2.397,6.043v29.441h-12.18V73.451c0-7.863,2.015-13.138,6.138-15.822
				c4.124-2.686,8.633-4.125,13.617-4.317c5.084,0,9.783,1.343,14.002,4.029c4.316,2.685,6.426,8.054,6.426,16.11V100.495
				L610.227,100.495z"/>
			<path fill="#FFFFFF" d="M615.021,100.495V47.079c0-1.726,0.576-3.165,1.823-4.412c1.246-1.248,2.684-1.821,4.41-1.821h21.866
				c6.138,0,10.836,1.247,14.001,3.836c3.26,2.78,4.89,6.521,4.89,11.314c0,2.975-0.669,5.564-1.916,7.673
				c-1.247,2.014-3.068,3.549-5.373,4.7c2.976,1.247,5.276,3.068,6.906,5.371c1.533,2.205,2.303,5.082,2.303,8.63
				c0,5.756-1.823,10.264-5.562,13.523c-3.836,3.162-9.208,4.698-16.111,4.698h-27.236V100.495z M626.816,63.862h14.002
				c2.974,0,5.18-0.481,6.617-1.536c1.343-1.055,2.108-2.685,2.108-4.891c0-2.206-0.67-3.836-2.108-4.89
				c-1.151-0.959-3.452-1.342-6.809-1.342h-13.906v12.659H626.816z M626.816,89.756h14.578c3.26,0,5.754-0.671,7.479-1.918
				c1.632-1.152,2.397-3.167,2.397-5.851c0-2.782-0.766-4.795-2.397-6.042c-1.533-1.15-4.027-1.727-7.671-1.727h-14.387V89.756z"/>
		</g>
	</g>
	
		<linearGradient id="SVGID_18_" gradientUnits="userSpaceOnUse" x1="180.1416" y1="-124.3584" x2="-52.9494" y2="-24.0183" gradientTransform="matrix(0.54 0 0 -0.54 93.3398 57.6997)">
		<stop  offset="0" style="stop-color:#5E74B8"/>
		<stop  offset="0.3943" style="stop-color:#3778B6;stop-opacity:0.6057"/>
		<stop  offset="1" style="stop-color:#037C9D;stop-opacity:0"/>
	</linearGradient>
	<path fill="url(#SVGID_18_)" d="M146.164,81.891c-0.671-6.617-2.973-13.042-6.618-18.7c-2.685-4.125-6.137-7.96-10.261-11.125
		c5.753,4.506,9.399,11.508,9.399,19.372c0,2.205-0.288,4.314-0.863,6.33c-0.193,0.861-0.479,1.631-0.767,2.492
		c-1.728,4.796-4.22,9.111-7.289,12.852c-4.315,5.179-9.685,9.304-15.728,11.987c-8.151,3.643-17.358,4.795-26.564,2.877
		c-1.534-0.288-2.973-0.671-4.507-1.152c-9.878-3.26-17.837-9.686-23.016-17.738C53.237,78.535,51.03,65.3,55.25,52.451l0,0
		c-1.918,6.04-2.973,12.371-2.973,19.083c0,20.141,9.589,37.978,24.455,49.197c0.383,0.286,0.671,0.48,1.054,0.769l0,0
		c10.934,7.958,24.264,9.971,36.347,6.81c9.302-2.399,17.934-7.962,24.07-16.4c0.959-1.247,1.728-2.589,2.494-3.933
		C145.396,99.921,147.124,90.811,146.164,81.891z M60.237,91.386C60.237,91.289,60.237,91.289,60.237,91.386
		C60.237,91.289,60.237,91.289,60.237,91.386z M64.84,106.632c0-0.096-0.096-0.191-0.096-0.286
		C64.84,106.44,64.84,106.536,64.84,106.632z M63.882,104.524c0-0.099-0.096-0.191-0.096-0.29
		C63.786,104.333,63.882,104.426,63.882,104.524z M63.018,102.415c0-0.097-0.095-0.194-0.095-0.288
		C62.922,102.221,62.922,102.318,63.018,102.415z M62.251,100.304c0-0.095-0.096-0.191-0.096-0.288
		C62.155,100.112,62.155,100.209,62.251,100.304z M61.58,98.098c0-0.096,0-0.191-0.096-0.191
		C61.484,97.906,61.484,98.002,61.58,98.098z M61.004,95.894c0-0.098,0-0.098,0-0.192C61.004,95.701,61.004,95.796,61.004,95.894z
		 M60.525,93.591c0-0.096,0-0.096,0-0.191C60.525,93.495,60.525,93.591,60.525,93.591z M65.895,108.358
		c0,0.097,0.096,0.193,0.096,0.193S65.895,108.455,65.895,108.358z M67.046,110.373c0,0.097,0.096,0.097,0.096,0.191
		C67.142,110.47,67.142,110.373,67.046,110.373z M68.389,112.291c0,0.097,0.096,0.097,0.096,0.193
		C68.485,112.388,68.485,112.291,68.389,112.291z M69.827,114.114c0,0.095,0.096,0.095,0.096,0.191
		C69.923,114.209,69.923,114.114,69.827,114.114z M71.457,115.839l0.096,0.095C71.457,115.934,71.457,115.934,71.457,115.839z
		 M73.087,117.566C73.087,117.566,73.184,117.662,73.087,117.566C73.184,117.662,73.087,117.566,73.087,117.566z"/>
</g>
</svg>
