<?xml version="1.0" encoding="utf-8"?>
<!-- Generator: Adobe Illustrator 16.0.0, SVG Export Plug-In . SVG Version: 6.00 Build 0)  -->
<!DOCTYPE svg PUBLIC "-//W3C//DTD SVG 1.1//EN" "http://www.w3.org/Graphics/SVG/1.1/DTD/svg11.dtd">
<svg version="1.1" id="Layer_1" xmlns="http://www.w3.org/2000/svg" xmlns:xlink="http://www.w3.org/1999/xlink" x="0px" y="0px"
	 width="720px" height="144px" viewBox="0 0 720 144" enable-background="new 0 0 720 144" xml:space="preserve">
<g>
	<g>
		<g>
			<g>
				
					<linearGradient id="SVGID_1_" gradientUnits="userSpaceOnUse" x1="-37.6421" y1="-113.0449" x2="-38.031" y2="-113.3495" gradientTransform="matrix(0.54 0 0 -0.54 93.3398 57.6997)">
					<stop  offset="0" style="stop-color:#9BDAED"/>
					<stop  offset="0.6144" style="stop-color:#378AB8"/>
					<stop  offset="1" style="stop-color:#005492"/>
				</linearGradient>
				<path fill="url(#SVGID_1_)" d="M72.405,118.422c0.383,0.286,0.671,0.48,1.055,0.769
					C73.076,118.997,72.788,118.708,72.405,118.422z"/>
				
					<linearGradient id="SVGID_2_" gradientUnits="userSpaceOnUse" x1="-36.8135" y1="-113.8716" x2="-36.8135" y2="-113.8716" gradientTransform="matrix(0.54 0 0 -0.54 93.3398 57.6997)">
					<stop  offset="0" style="stop-color:#9BDAED"/>
					<stop  offset="0.6144" style="stop-color:#378AB8"/>
					<stop  offset="1" style="stop-color:#005492"/>
				</linearGradient>
				<path fill="url(#SVGID_2_)" d="M73.46,119.19L73.46,119.19L73.46,119.19z"/>
				
					<linearGradient id="SVGID_3_" gradientUnits="userSpaceOnUse" x1="-12.3931" y1="-35.0244" x2="-13.4149" y2="-35.8255" gradientTransform="matrix(0.54 0 0 -0.54 93.3398 57.6997)">
					<stop  offset="0" style="stop-color:#9BDAED"/>
					<stop  offset="0.6144" style="stop-color:#378AB8"/>
					<stop  offset="1" style="stop-color:#005492"/>
				</linearGradient>
				<path fill="url(#SVGID_3_)" d="M86.023,75.555c0.191,0.863,0.479,1.63,0.767,2.494c-0.096-0.387-0.288-0.77-0.384-1.152
					C86.214,76.418,86.119,75.938,86.023,75.555z"/>
				
					<linearGradient id="SVGID_4_" gradientUnits="userSpaceOnUse" x1="3.3018" y1="15.3188" x2="2.364" y2="14.5839" gradientTransform="matrix(0.54 0 0 -0.54 93.3398 57.6997)">
					<stop  offset="0" style="stop-color:#9BDAED"/>
					<stop  offset="0.6144" style="stop-color:#378AB8"/>
					<stop  offset="1" style="stop-color:#005492"/>
				</linearGradient>
				<path fill="url(#SVGID_4_)" d="M94.559,49.854c0.191-0.192,0.383-0.288,0.671-0.48C95.038,49.469,94.846,49.662,94.559,49.854z"
					/>
				
					<linearGradient id="SVGID_5_" gradientUnits="userSpaceOnUse" x1="5.2129" y1="16.5879" x2="4.1962" y2="15.7909" gradientTransform="matrix(0.54 0 0 -0.54 93.3398 57.6997)">
					<stop  offset="0" style="stop-color:#9BDAED"/>
					<stop  offset="0.6144" style="stop-color:#378AB8"/>
					<stop  offset="1" style="stop-color:#005492"/>
				</linearGradient>
				<path fill="url(#SVGID_5_)" d="M95.517,49.183c0.288-0.192,0.479-0.288,0.767-0.48C95.997,48.797,95.805,48.99,95.517,49.183z"
					/>
				
					<linearGradient id="SVGID_6_" gradientUnits="userSpaceOnUse" x1="56.3193" y1="16.4512" x2="56.0145" y2="16.2125" gradientTransform="matrix(0.54 0 0 -0.54 93.3398 57.6997)">
					<stop  offset="0" style="stop-color:#9BDAED"/>
					<stop  offset="0.6144" style="stop-color:#378AB8"/>
					<stop  offset="1" style="stop-color:#005492"/>
				</linearGradient>
				<path fill="url(#SVGID_6_)" d="M123.328,48.607c0.288,0.19,0.479,0.288,0.768,0.479
					C123.807,48.99,123.616,48.797,123.328,48.607z"/>
				
					<linearGradient id="SVGID_7_" gradientUnits="userSpaceOnUse" x1="58.1758" y1="15.0278" x2="57.9415" y2="14.8442" gradientTransform="matrix(0.54 0 0 -0.54 93.3398 57.6997)">
					<stop  offset="0" style="stop-color:#9BDAED"/>
					<stop  offset="0.6144" style="stop-color:#378AB8"/>
					<stop  offset="1" style="stop-color:#005492"/>
				</linearGradient>
				<path fill="url(#SVGID_7_)" d="M124.383,49.373c0.192,0.192,0.383,0.289,0.671,0.48
					C124.766,49.662,124.575,49.469,124.383,49.373z"/>
				
					<linearGradient id="SVGID_8_" gradientUnits="userSpaceOnUse" x1="74.7583" y1="-34.4609" x2="72.2927" y2="-36.3931" gradientTransform="matrix(0.54 0 0 -0.54 93.3398 57.6997)">
					<stop  offset="0" style="stop-color:#9BDAED"/>
					<stop  offset="0.6144" style="stop-color:#378AB8"/>
					<stop  offset="1" style="stop-color:#005492"/>
				</linearGradient>
				<path fill="url(#SVGID_8_)" d="M132.822,77.951c0.289-0.767,0.576-1.631,0.767-2.492c-0.095,0.384-0.191,0.861-0.383,1.248
					C133.11,77.185,132.918,77.568,132.822,77.951z"/>
				
					<linearGradient id="SVGID_9_" gradientUnits="userSpaceOnUse" x1="29.7559" y1="-66.481" x2="28.6289" y2="-67.3641" gradientTransform="matrix(0.54 0 0 -0.54 93.3398 57.6997)">
					<stop  offset="0" style="stop-color:#9BDAED"/>
					<stop  offset="0.6144" style="stop-color:#378AB8"/>
					<stop  offset="1" style="stop-color:#005492"/>
				</linearGradient>
				<path fill="url(#SVGID_9_)" d="M109.806,93.775c-0.383,0-0.863,0-1.247,0C108.943,93.775,109.327,93.775,109.806,93.775z"/>
				
					<linearGradient id="SVGID_10_" gradientUnits="userSpaceOnUse" x1="32.1045" y1="-66.4497" x2="30.9323" y2="-67.3685" gradientTransform="matrix(0.54 0 0 -0.54 93.3398 57.6997)">
					<stop  offset="0" style="stop-color:#9BDAED"/>
					<stop  offset="0.6144" style="stop-color:#378AB8"/>
					<stop  offset="1" style="stop-color:#005492"/>
				</linearGradient>
				<path fill="url(#SVGID_10_)" d="M111.053,93.775c-0.384,0-0.864,0-1.247,0C110.189,93.775,110.669,93.775,111.053,93.775z"/>
				<path fill="#3CA1A0" d="M111.437,7.37c-0.576,0-1.055,0-1.63,0c-13.426,0-25.51,6.136-33.47,15.822
					c-6.138,7.48-9.781,16.976-9.781,27.428c0,1.535,0.096,3.068,0.288,4.603c0.959,9.303,4.986,17.741,10.932,24.359
					c4.411,4.891,10.07,8.824,16.304,11.221c4.507,1.726,9.398,2.782,14.48,2.973c-9.973-0.479-18.317-6.904-21.769-15.824
					c-0.288-0.767-0.576-1.631-0.767-2.492c-1.439-4.89-1.918-9.783-1.63-14.577c0.383-6.714,2.397-13.234,5.658-18.989
					c4.411-7.673,11.22-14.097,19.756-17.933c1.438-0.671,2.877-1.151,4.315-1.63c9.878-3.26,20.139-2.686,29.058,0.862
					c11.604,4.508,21.193,14.099,25.413,26.853c0,0.098,0.097,0.193,0.097,0.289l0,0C160.825,25.879,138.289,8.137,111.437,7.37z"/>
				
					<linearGradient id="SVGID_11_" gradientUnits="userSpaceOnUse" x1="19.0034" y1="31.6338" x2="146.0828" y2="-59.9548" gradientTransform="matrix(0.54 0 0 -0.54 93.3398 57.6997)">
					<stop  offset="0" style="stop-color:#5BBFC5"/>
					<stop  offset="0.3943" style="stop-color:#3DBEB3"/>
					<stop  offset="1" style="stop-color:#32BA99"/>
				</linearGradient>
				<path fill="url(#SVGID_11_)" d="M168.689,50.333L168.689,50.333L168.689,50.333c0-0.096-0.097-0.191-0.097-0.191
					c-4.122-12.852-13.713-22.345-25.413-26.853c-9.015-3.548-19.18-4.029-29.057-0.864c-1.535,0.479-2.973,1.055-4.316,1.631
					c-8.536,3.836-15.345,10.165-19.756,17.933c-3.26,5.754-5.274,12.275-5.658,18.989c-0.288,4.794,0.288,9.781,1.63,14.577
					c-0.575-2.014-0.863-4.124-0.863-6.33c0-7.864,3.644-14.863,9.399-19.371c0.191-0.192,0.383-0.288,0.671-0.48
					c0,0,0.095,0,0.095-0.095c0.097-0.096,0.097-0.096,0.193-0.192c0.288-0.191,0.479-0.383,0.767-0.479
					c4.22-2.877,8.823-4.988,13.522-6.233c6.521-1.728,13.33-1.823,19.755-0.48c8.727,1.823,16.878,6.33,23.209,13.33
					c1.055,1.151,2.013,2.302,2.972,3.644c6.138,8.441,8.728,18.318,8.151,27.91c0.191-0.288,0.384-0.672,0.577-0.959
					c-0.193,0.287-0.385,0.671-0.577,0.959c-0.671,12.081-6.425,23.782-16.687,31.646c14.865-11.318,24.456-29.153,24.456-49.197
					C171.662,62.608,170.607,56.278,168.689,50.333z"/>
				
					<linearGradient id="SVGID_12_" gradientUnits="userSpaceOnUse" x1="-35.5356" y1="-114.501" x2="-36.027" y2="-114.8861" gradientTransform="matrix(0.54 0 0 -0.54 93.3398 57.6997)">
					<stop  offset="0" style="stop-color:#9BDAED"/>
					<stop  offset="0.6144" style="stop-color:#378AB8"/>
					<stop  offset="1" style="stop-color:#005492"/>
				</linearGradient>
				<path fill="url(#SVGID_12_)" d="M74.611,120.052c-0.384-0.288-0.767-0.575-1.15-0.861
					C73.844,119.477,74.227,119.764,74.611,120.052z"/>
				<path fill="#3CA1A0" d="M155.743,58.867c-0.959-1.245-1.917-2.492-2.972-3.644c-6.331-7-14.482-11.507-23.209-13.33
					c-6.521-1.343-13.235-1.247-19.755,0.48c-4.699,1.245-9.303,3.26-13.522,6.233c3.836-2.589,8.536-4.029,13.522-4.029
					s9.686,1.534,13.521,4.029c0.288,0.19,0.479,0.288,0.768,0.479c0.096,0.097,0.096,0.097,0.192,0.192c0,0,0.096,0,0.096,0.095
					c0.192,0.192,0.479,0.289,0.671,0.48c4.125,3.164,7.576,6.904,10.262,11.125c3.644,5.657,5.85,12.083,6.617,18.701
					c0.959,8.823-0.767,18.028-5.466,26.18c-0.767,1.344-1.63,2.589-2.493,3.934c-6.139,8.438-14.673,14-24.071,16.397
					c-11.604,3.07-24.455,1.247-35.1-6.042c9.973,6.906,22.057,10.934,35.1,10.934c13.042,0,25.126-4.027,35.1-10.934
					c0.383-0.286,0.767-0.574,1.149-0.862l0,0c10.933-7.961,16.976-19.948,17.742-32.414
					C164.47,77.185,161.784,67.21,155.743,58.867z"/>
				
					<linearGradient id="SVGID_13_" gradientUnits="userSpaceOnUse" x1="3.9351" y1="15.8398" x2="3.5124" y2="15.5086" gradientTransform="matrix(0.54 0 0 -0.54 93.3398 57.6997)">
					<stop  offset="0" style="stop-color:#9BDAED"/>
					<stop  offset="0.6144" style="stop-color:#378AB8"/>
					<stop  offset="1" style="stop-color:#005492"/>
				</linearGradient>
				<path fill="url(#SVGID_13_)" d="M95.324,49.278C95.324,49.278,95.229,49.278,95.324,49.278c0,0,0.097-0.096,0.193-0.192
					C95.421,49.183,95.421,49.183,95.324,49.278z"/>
				
					<linearGradient id="SVGID_14_" gradientUnits="userSpaceOnUse" x1="-84.0542" y1="-57.2075" x2="90.2827" y2="-57.2075" gradientTransform="matrix(0.54 0 0 -0.54 93.3398 57.6997)">
					<stop  offset="0" style="stop-color:#5BBFC5"/>
					<stop  offset="0.3943" style="stop-color:#3DBEB3"/>
					<stop  offset="1" style="stop-color:#32BA99"/>
				</linearGradient>
				<path fill="url(#SVGID_14_)" d="M141.837,79.582c-0.671-6.618-2.973-13.042-6.618-18.7c-2.685-4.125-6.137-7.96-10.261-11.125
					c5.753,4.506,9.399,11.508,9.399,19.372c0,2.206-0.288,4.314-0.863,6.33c-0.193,0.861-0.479,1.631-0.767,2.492
					c-1.728,4.796-4.22,9.111-7.289,12.852c-4.315,5.179-9.685,9.304-15.728,11.987c-8.151,3.643-17.358,4.795-26.564,2.877
					c-1.534-0.288-2.973-0.671-4.507-1.152c-9.878-3.26-17.837-9.686-23.016-17.738c-6.712-10.55-8.919-23.785-4.699-36.634l0,0
					c-1.918,6.04-2.973,12.371-2.973,19.083c0,20.141,9.589,37.978,24.455,49.197c0.383,0.286,0.671,0.48,1.054,0.769l0,0
					c10.934,7.958,24.264,9.971,36.347,6.81c9.302-2.399,17.934-7.962,24.07-16.4c0.959-1.247,1.728-2.589,2.494-3.933
					C141.069,97.612,142.796,88.502,141.837,79.582z M55.91,89.077C55.91,88.98,55.91,88.98,55.91,89.077
					C55.91,88.98,55.91,88.98,55.91,89.077z M60.513,104.323c0-0.096-0.096-0.191-0.096-0.286
					C60.513,104.132,60.513,104.228,60.513,104.323z M59.555,102.216c0-0.099-0.096-0.191-0.096-0.29
					C59.458,102.024,59.555,102.117,59.555,102.216z M58.69,100.106c0-0.097-0.095-0.194-0.095-0.288
					C58.595,99.912,58.595,100.01,58.69,100.106z M57.924,97.995c0-0.095-0.096-0.191-0.096-0.288
					C57.828,97.804,57.828,97.9,57.924,97.995z M57.253,95.789c0-0.096,0-0.191-0.096-0.191
					C57.157,95.598,57.157,95.693,57.253,95.789z M56.677,93.585c0-0.098,0-0.098,0-0.192
					C56.677,93.393,56.677,93.487,56.677,93.585z M56.198,91.282c0-0.096,0-0.096,0-0.191
					C56.198,91.187,56.198,91.282,56.198,91.282z M61.568,106.05c0,0.097,0.096,0.193,0.096,0.193S61.568,106.146,61.568,106.05z
					 M62.719,108.064c0,0.097,0.096,0.097,0.096,0.191C62.815,108.161,62.815,108.064,62.719,108.064z M64.062,109.982
					c0,0.097,0.096,0.097,0.096,0.193C64.158,110.079,64.158,109.982,64.062,109.982z M65.5,111.806
					c0,0.095,0.096,0.095,0.096,0.191C65.596,111.9,65.596,111.806,65.5,111.806z M67.13,113.53l0.096,0.095
					C67.13,113.625,67.13,113.625,67.13,113.53z M68.76,115.258C68.76,115.258,68.856,115.354,68.76,115.258
					C68.856,115.354,68.76,115.258,68.76,115.258z"/>
				
					<linearGradient id="SVGID_15_" gradientUnits="userSpaceOnUse" x1="57.147" y1="15.7842" x2="57.0256" y2="15.6892" gradientTransform="matrix(0.54 0 0 -0.54 93.3398 57.6997)">
					<stop  offset="0" style="stop-color:#9BDAED"/>
					<stop  offset="0.6144" style="stop-color:#378AB8"/>
					<stop  offset="1" style="stop-color:#005492"/>
				</linearGradient>
				<path fill="url(#SVGID_15_)" d="M124.287,49.278c-0.096-0.096-0.096-0.096-0.192-0.192
					C124.191,49.183,124.287,49.278,124.287,49.278L124.287,49.278z"/>
				<g>
					
						<linearGradient id="SVGID_16_" gradientUnits="userSpaceOnUse" x1="42.1504" y1="-51.6421" x2="-92.8206" y2="102.8643" gradientTransform="matrix(0.54 0 0 -0.54 93.3398 57.6997)">
						<stop  offset="0" style="stop-color:#8EC641"/>
						<stop  offset="0.6015" style="stop-color:#38A749"/>
						<stop  offset="1" style="stop-color:#019547"/>
					</linearGradient>
					<path fill="url(#SVGID_16_)" d="M50.923,50.142c7.864-24.36,30.401-42.101,57.253-42.772c0.574,0,1.054,0,1.63,0
						c-0.576,0-1.055,0-1.63,0c-12.852,0.479-24.167,6.521-31.84,15.822c-6.138,7.48-9.781,16.976-9.781,27.428
						c0,1.535,0.096,3.07,0.288,4.603c0.959,9.303,4.987,17.741,10.932,24.359c4.411,4.892,10.07,8.824,16.304,11.221
						c4.507,1.726,9.398,2.782,14.48,2.973c0.384,0,0.864,0,1.247,0s0.863,0,1.247,0c9.974-0.479,18.317-6.904,21.769-15.824
						c-1.725,4.796-4.219,9.111-7.288,12.852c-4.315,5.179-9.686,9.304-15.728,11.987c-8.151,3.643-17.358,4.795-26.564,2.877
						c-1.535-0.288-2.973-0.671-4.508-1.152c-9.877-3.26-17.837-9.685-23.016-17.738C49.006,76.227,46.799,62.991,50.923,50.142
						C51.019,50.142,51.019,50.142,50.923,50.142z"/>
					
						<linearGradient id="SVGID_17_" gradientUnits="userSpaceOnUse" x1="41.2725" y1="-52.4116" x2="-93.6983" y2="102.0943" gradientTransform="matrix(0.54 0 0 -0.54 93.3398 57.6997)">
						<stop  offset="0" style="stop-color:#5BBFC5"/>
						<stop  offset="0.3943" style="stop-color:#3DBEB3"/>
						<stop  offset="1" style="stop-color:#32BA99"/>
					</linearGradient>
					<path fill="url(#SVGID_17_)" d="M55.718,86.776c5.179,8.149,13.139,14.575,23.016,17.738c1.535,0.481,2.973,0.864,4.508,1.152
						c9.207,1.918,18.413,0.766,26.564-2.877c6.042-2.684,11.412-6.809,15.728-11.987c3.069-3.74,5.563-8.056,7.288-12.852
						c-3.356,8.92-11.795,15.249-21.769,15.824c-0.384,0-0.864,0-1.247,0s-0.863,0-1.247,0c-5.083-0.19-9.973-1.149-14.48-2.973
						c-6.33-2.493-11.891-6.329-16.304-11.221c-5.945-6.618-9.973-15.056-10.932-24.359c-0.191-1.535-0.288-3.068-0.288-4.603
						c0-10.357,3.645-19.948,9.781-27.428c7.576-9.301,18.989-15.343,31.84-15.822C81.42,8.042,58.787,25.782,50.923,50.142l0,0
						C46.799,62.991,49.006,76.227,55.718,86.776z"/>
				</g>
			</g>
		</g>
		<g>
			<path fill="#424143" d="M203.021,98.187V49.086h-17.646v-4.315c0-1.726,0.576-3.165,1.823-4.412
				c1.248-1.248,2.685-1.821,4.41-1.821h41.24v10.548h-17.55v49.101H203.021z"/>
			<path fill="#424143" d="M275.33,52.058v27.045c0,8.246-2.11,13.617-6.425,16.112c-4.315,2.589-8.92,3.834-14.001,3.834
				c-4.988-0.191-9.494-1.631-13.619-4.123c-4.123-2.589-6.137-7.767-6.137-15.823V52.058h12.178V81.5
				c0,2.782,0.769,4.795,2.399,6.042c1.63,1.247,3.452,1.918,5.562,1.918c2.111,0,3.932-0.671,5.658-1.918
				c1.631-1.247,2.493-3.26,2.493-6.042V57.908c0-1.63,0.576-2.973,1.63-4.123c1.054-1.151,2.494-1.728,4.22-1.728H275.33z"/>
			<path fill="#424143" d="M278.591,98.187V75.843c0-4.508,0.67-8.249,2.013-11.317c1.342-3.07,3.165-5.562,5.467-7.385
				c2.205-1.725,4.795-2.973,7.673-3.836c2.972-0.766,5.945-1.247,9.109-1.247c0.191,0,0.479,0,0.864,0c0.383,0,0.669,0,0.862,0
				v12.275h-4.028c-3.357,0-5.849,0.769-7.479,2.399c-1.63,1.63-2.398,4.123-2.398,7.67v23.784H278.591z"/>
			<path fill="#424143" d="M347.447,98.187h-6.041c-1.725,0-3.165-0.574-4.22-1.63c-1.054-1.054-1.63-2.493-1.63-4.22V68.746
				c0-2.781-0.864-4.795-2.494-6.043c-1.631-1.247-3.549-1.917-5.658-1.917c-2.11,0-3.933,0.671-5.563,1.917
				c-1.63,1.248-2.397,3.262-2.397,6.043v29.441h-12.179V71.142c0-7.863,2.015-13.137,6.138-15.822
				c4.125-2.686,8.632-4.125,13.617-4.317c5.084,0,9.784,1.343,14.004,4.029c4.314,2.685,6.424,8.054,6.424,16.109V98.187z"/>
			<path fill="#424143" d="M357.901,93.968c-2.398-2.11-4.125-4.891-5.178-8.438c-1.055-3.55-1.535-7.192-1.535-11.028
				c0-3.167,0.48-6.236,1.342-9.399c0.864-3.165,2.206-5.754,4.029-7.769c2.974-3.453,6.905-5.561,11.604-6.138
				c4.7-0.671,9.014-0.287,12.852,1.15c4.411,1.727,7.672,4.7,9.686,9.015c1.918,3.836,2.974,8.249,2.974,13.331
				c0,3.74-0.385,6.905-1.249,9.494c-0.766,2.686-1.82,4.892-3.163,6.81c-2.782,3.835-6.329,6.232-10.55,7.097
				c-3.836,1.054-7.672,1.149-11.508,0.286C363.367,97.518,360.298,96.077,357.901,93.968z M366.242,63.472
				c-2.396,2.684-3.547,6.615-3.26,11.889c0.191,5.276,1.246,8.921,2.975,11.028c0.672,0.959,1.916,1.727,3.644,2.304
				c1.726,0.672,3.452,0.672,5.274,0.192s3.356-1.823,4.797-3.933c1.342-2.109,2.107-5.466,2.205-10.069
				c0-4.125-0.672-7.29-2.016-9.398c-1.344-2.111-2.875-3.453-4.604-4.029c-1.725-0.574-3.451-0.574-5.178-0.095
				C368.354,62.033,367.107,62.703,366.242,63.472z"/>
			<path fill="#424143" d="M419.758,98.187H407.48l-16.11-46.129h12.851l9.205,32.416l8.153-28.292
				c0.959-2.779,2.782-4.125,5.561-4.125h9.016L419.758,98.187z"/>
			<path fill="#424143" d="M470.201,83.898h8.63c-1.246,4.891-3.74,8.533-7.287,11.125c-3.549,2.684-8.056,4.025-13.523,4.025
				c-6.617,0-11.698-2.109-15.439-6.423c-3.739-4.124-5.562-10.07-5.562-17.839c0-7.384,1.823-13.138,5.371-17.358
				c3.739-4.315,8.823-6.426,15.439-6.426c6.906,0,12.275,2.111,16.111,6.233c3.739,4.317,5.562,10.262,5.562,17.837
				c0,0.48,0,0.863,0,1.246s0,0.576,0,0.672c0,0.576-0.097,0.959-0.193,1.248h-30.016c0.097,3.547,0.96,6.232,2.59,7.96
				c1.532,1.819,3.739,2.78,6.81,2.78c1.918,0,3.643-0.383,4.984-1.247c0.384-0.097,0.673-0.286,0.961-0.574
				c0.286-0.288,0.574-0.576,0.959-0.959c0.095-0.383,0.574-0.768,1.342-1.344C467.804,84.282,468.857,83.898,470.201,83.898z
				 M449.391,70.375h17.646c-0.191-3.165-1.056-5.466-2.397-6.903c-1.533-1.631-3.645-2.399-6.427-2.399
				c-2.589,0-4.603,0.769-6.232,2.399C450.444,65.102,449.582,67.403,449.391,70.375z"/>
			<path fill="#424143" d="M482.955,98.187V75.843c0-4.508,0.671-8.249,2.013-11.317c1.344-3.07,3.167-5.562,5.468-7.385
				c2.206-1.725,4.795-2.973,7.67-3.836c2.975-0.766,5.947-1.247,9.113-1.247c0.19,0,0.479,0,0.862,0s0.671,0,0.862,0v12.275h-4.028
				c-3.355,0-5.848,0.769-7.479,2.399c-1.632,1.63-2.397,4.123-2.397,7.67v23.784H482.955z"/>
			<path fill="#424143" d="M512.971,98.187V44.771c0-1.726,0.576-3.165,1.823-4.412c1.247-1.248,2.686-1.821,4.412-1.821h21.864
				c6.138,0,10.838,1.247,14.001,3.836c3.262,2.78,4.892,6.521,4.892,11.314c0,2.975-0.673,5.564-1.919,7.673
				c-1.244,2.014-3.067,3.549-5.37,4.7c2.974,1.247,5.274,3.068,6.906,5.37c1.533,2.206,2.299,5.083,2.299,8.63
				c0,5.756-1.819,10.264-5.561,13.523c-3.836,3.162-9.206,4.698-16.112,4.698h-27.235V98.187z M524.768,61.554h14.002
				c2.974,0,5.179-0.481,6.616-1.536c1.344-1.055,2.11-2.685,2.11-4.891c0-2.206-0.671-3.836-2.11-4.89
				c-1.15-0.959-3.451-1.342-6.81-1.342h-13.903v12.659H524.768z M524.768,87.447h14.578c3.26,0,5.753-0.671,7.479-1.918
				c1.63-1.152,2.396-3.167,2.396-5.851c0-2.782-0.767-4.795-2.396-6.042c-1.536-1.15-4.028-1.726-7.673-1.726h-14.385V87.447z"/>
			<path fill="#424143" d="M605.899,98.187h-6.042c-1.727,0-3.163-0.574-4.22-1.63c-1.056-1.054-1.63-2.493-1.63-4.22V68.746
				c0-2.781-0.862-4.795-2.493-6.043c-1.63-1.247-3.549-1.917-5.658-1.917s-3.933,0.671-5.562,1.917
				c-1.63,1.248-2.397,3.262-2.397,6.043v29.441h-12.18V71.142c0-7.863,2.015-13.137,6.138-15.822
				c4.124-2.686,8.633-4.125,13.617-4.317c5.084,0,9.783,1.343,14.002,4.029c4.316,2.685,6.426,8.054,6.426,16.109V98.187
				L605.899,98.187z"/>
			<path fill="#424143" d="M610.694,98.187V44.771c0-1.726,0.576-3.165,1.823-4.412c1.246-1.248,2.684-1.821,4.41-1.821h21.866
				c6.138,0,10.836,1.247,14.001,3.836c3.26,2.78,4.89,6.521,4.89,11.314c0,2.975-0.669,5.564-1.916,7.673
				c-1.247,2.014-3.068,3.549-5.373,4.7c2.976,1.247,5.276,3.068,6.906,5.37c1.533,2.206,2.303,5.083,2.303,8.63
				c0,5.756-1.823,10.264-5.562,13.523c-3.836,3.162-9.208,4.698-16.111,4.698h-27.236V98.187z M622.489,61.554h14.002
				c2.974,0,5.18-0.481,6.617-1.536c1.343-1.055,2.108-2.685,2.108-4.891c0-2.206-0.67-3.836-2.108-4.89
				c-1.151-0.959-3.452-1.342-6.809-1.342h-13.906v12.659H622.489z M622.489,87.447h14.578c3.26,0,5.754-0.671,7.479-1.918
				c1.632-1.152,2.397-3.167,2.397-5.851c0-2.782-0.766-4.795-2.397-6.042c-1.533-1.15-4.027-1.726-7.671-1.726h-14.387V87.447z"/>
		</g>
	</g>
	
		<linearGradient id="SVGID_18_" gradientUnits="userSpaceOnUse" x1="172.1289" y1="-120.082" x2="-60.9621" y2="-19.7419" gradientTransform="matrix(0.54 0 0 -0.54 93.3398 57.6997)">
		<stop  offset="0" style="stop-color:#5E74B8"/>
		<stop  offset="0.3943" style="stop-color:#3778B6;stop-opacity:0.6057"/>
		<stop  offset="1" style="stop-color:#037C9D;stop-opacity:0"/>
	</linearGradient>
	<path fill="url(#SVGID_18_)" d="M141.837,79.582c-0.671-6.618-2.973-13.042-6.618-18.7c-2.685-4.125-6.137-7.96-10.261-11.125
		c5.753,4.506,9.399,11.508,9.399,19.372c0,2.206-0.288,4.314-0.863,6.33c-0.193,0.861-0.479,1.631-0.767,2.492
		c-1.728,4.796-4.22,9.111-7.289,12.852c-4.315,5.179-9.685,9.304-15.728,11.987c-8.151,3.643-17.358,4.795-26.564,2.877
		c-1.534-0.288-2.973-0.671-4.507-1.152c-9.878-3.26-17.837-9.686-23.016-17.738c-6.712-10.55-8.919-23.785-4.699-36.634l0,0
		c-1.918,6.04-2.973,12.371-2.973,19.083c0,20.141,9.589,37.978,24.455,49.197c0.383,0.286,0.671,0.48,1.054,0.769l0,0
		c10.934,7.958,24.264,9.971,36.347,6.81c9.302-2.399,17.934-7.962,24.07-16.4c0.959-1.247,1.728-2.589,2.494-3.933
		C141.069,97.612,142.796,88.502,141.837,79.582z M55.91,89.077C55.91,88.98,55.91,88.98,55.91,89.077
		C55.91,88.98,55.91,88.98,55.91,89.077z M60.513,104.323c0-0.096-0.096-0.191-0.096-0.286
		C60.513,104.132,60.513,104.228,60.513,104.323z M59.555,102.216c0-0.099-0.096-0.191-0.096-0.29
		C59.458,102.024,59.555,102.117,59.555,102.216z M58.69,100.106c0-0.097-0.095-0.194-0.095-0.288
		C58.595,99.912,58.595,100.01,58.69,100.106z M57.924,97.995c0-0.095-0.096-0.191-0.096-0.288
		C57.828,97.804,57.828,97.9,57.924,97.995z M57.253,95.789c0-0.096,0-0.191-0.096-0.191C57.157,95.598,57.157,95.693,57.253,95.789
		z M56.677,93.585c0-0.098,0-0.098,0-0.192C56.677,93.393,56.677,93.487,56.677,93.585z M56.198,91.282c0-0.096,0-0.096,0-0.191
		C56.198,91.187,56.198,91.282,56.198,91.282z M61.568,106.05c0,0.097,0.096,0.193,0.096,0.193S61.568,106.146,61.568,106.05z
		 M62.719,108.064c0,0.097,0.096,0.097,0.096,0.191C62.815,108.161,62.815,108.064,62.719,108.064z M64.062,109.982
		c0,0.097,0.096,0.097,0.096,0.193C64.158,110.079,64.158,109.982,64.062,109.982z M65.5,111.806c0,0.095,0.096,0.095,0.096,0.191
		C65.596,111.9,65.596,111.806,65.5,111.806z M67.13,113.53l0.096,0.095C67.13,113.625,67.13,113.625,67.13,113.53z M68.76,115.258
		C68.76,115.258,68.856,115.354,68.76,115.258C68.856,115.354,68.76,115.258,68.76,115.258z"/>
</g>
</svg>

