<?xml version="1.0" encoding="utf-8"?>
<!-- Generator: Adobe Illustrator 16.0.0, SVG Export Plug-In . SVG Version: 6.00 Build 0)  -->
<!DOCTYPE svg PUBLIC "-//W3C//DTD SVG 1.1//EN" "http://www.w3.org/Graphics/SVG/1.1/DTD/svg11.dtd">
<svg version="1.1" id="Layer_1" xmlns="http://www.w3.org/2000/svg" xmlns:xlink="http://www.w3.org/1999/xlink" x="0px" y="0px"
	 width="1600px" height="1200px" viewBox="0 0 1600 1200" enable-background="new 0 0 1600 1200" xml:space="preserve">
<g>
	<defs>
		<rect id="SVGID_1_" width="1600" height="1200"/>
	</defs>
	<clipPath id="SVGID_2_">
		<use xlink:href="#SVGID_1_"  overflow="visible"/>
	</clipPath>
	<g clip-path="url(#SVGID_2_)">
		<defs>
			<path id="SVGID_3_" d="M507.697,651.926c-0.366-0.266-0.725-0.54-1.085-0.813C506.968,651.388,507.33,651.66,507.697,651.926"/>
		</defs>
		<clipPath id="SVGID_4_">
			<use xlink:href="#SVGID_3_"  overflow="visible"/>
		</clipPath>
		
			<linearGradient id="SVGID_5_" gradientUnits="userSpaceOnUse" x1="0" y1="1200" x2="1" y2="1200" gradientTransform="matrix(-0.2191 0.1717 0.1717 0.2191 301.1631 388.519)">
			<stop  offset="0" style="stop-color:#92E5F7"/>
			<stop  offset="0.5928" style="stop-color:#398CB9"/>
			<stop  offset="1" style="stop-color:#005392"/>
		</linearGradient>
		<polygon clip-path="url(#SVGID_4_)" fill="url(#SVGID_5_)" points="508.092,651.616 507.025,652.453 506.217,651.422 
			507.284,650.585 		"/>
	</g>
	<g clip-path="url(#SVGID_2_)">
		<defs>
			<polyline id="SVGID_6_" points="507.699,651.928 507.701,651.929 507.697,651.926 507.699,651.928 			"/>
		</defs>
		<clipPath id="SVGID_7_">
			<use xlink:href="#SVGID_6_"  overflow="visible"/>
		</clipPath>
		
			<linearGradient id="SVGID_8_" gradientUnits="userSpaceOnUse" x1="507.6953" y1="651.9277" x2="507.7026" y2="651.9277" gradientTransform="matrix(-7.409000e-04 5.807000e-04 5.807000e-04 7.409000e-04 507.0018 651.0385)">
			<stop  offset="0" style="stop-color:#92E5F7"/>
			<stop  offset="0.5928" style="stop-color:#398CB9"/>
			<stop  offset="1" style="stop-color:#005392"/>
		</linearGradient>
		<rect x="507.696" y="651.926" clip-path="url(#SVGID_7_)" fill="url(#SVGID_8_)" width="0.005" height="0.004"/>
	</g>
	<g clip-path="url(#SVGID_2_)">
		<defs>
			<path id="SVGID_9_" d="M521.614,608.947c-0.148-0.413-0.303-0.822-0.438-1.241c-0.143-0.438-0.263-0.877-0.391-1.315
				C521.016,607.263,521.295,608.114,521.614,608.947"/>
		</defs>
		<clipPath id="SVGID_10_">
			<use xlink:href="#SVGID_9_"  overflow="visible"/>
		</clipPath>
		
			<linearGradient id="SVGID_11_" gradientUnits="userSpaceOnUse" x1="0" y1="1199.999" x2="1" y2="1199.999" gradientTransform="matrix(-0.5753 0.4509 0.4509 0.5753 -19.6297 -82.8391)">
			<stop  offset="0" style="stop-color:#92E5F7"/>
			<stop  offset="0.5928" style="stop-color:#398CB9"/>
			<stop  offset="1" style="stop-color:#005392"/>
		</linearGradient>
		<polygon clip-path="url(#SVGID_10_)" fill="url(#SVGID_11_)" points="522.855,607.975 521.101,609.35 519.544,607.363 
			521.299,605.988 		"/>
	</g>
	<g clip-path="url(#SVGID_2_)">
		<defs>
			<path id="SVGID_12_" d="M529.738,579.587c0.2-0.152,0.394-0.308,0.596-0.458C530.133,579.279,529.935,579.432,529.738,579.587
				 M530.334,579.129c0.026-0.019,0.051-0.038,0.077-0.057C530.385,579.091,530.36,579.11,530.334,579.129"/>
		</defs>
		<clipPath id="SVGID_13_">
			<use xlink:href="#SVGID_12_"  overflow="visible"/>
		</clipPath>
		
			<linearGradient id="SVGID_14_" gradientUnits="userSpaceOnUse" x1="0" y1="1199.999" x2="1" y2="1199.999" gradientTransform="matrix(-0.5276 0.4135 0.4135 0.5276 34.0448 -53.9814)">
			<stop  offset="0" style="stop-color:#92E5F7"/>
			<stop  offset="0.5928" style="stop-color:#398CB9"/>
			<stop  offset="1" style="stop-color:#005392"/>
		</linearGradient>
		<polygon clip-path="url(#SVGID_13_)" fill="url(#SVGID_14_)" points="530.661,579.391 529.994,579.914 529.488,579.268 
			530.155,578.745 		"/>
	</g>
	<g clip-path="url(#SVGID_2_)">
		<defs>
			<path id="SVGID_15_" d="M530.723,578.851c0.049-0.036,0.098-0.071,0.147-0.105C530.821,578.78,530.772,578.815,530.723,578.851
				 M530.87,578.746c0.203-0.142,0.408-0.279,0.612-0.419C531.276,578.463,531.072,578.603,530.87,578.746"/>
		</defs>
		<clipPath id="SVGID_16_">
			<use xlink:href="#SVGID_15_"  overflow="visible"/>
		</clipPath>
		
			<linearGradient id="SVGID_17_" gradientUnits="userSpaceOnUse" x1="0" y1="1199.999" x2="1" y2="1199.999" gradientTransform="matrix(-0.5731 0.4492 0.4492 0.5731 -7.7142 -109.3511)">
			<stop  offset="0" style="stop-color:#92E5F7"/>
			<stop  offset="0.5928" style="stop-color:#398CB9"/>
			<stop  offset="1" style="stop-color:#005392"/>
		</linearGradient>
		<polygon clip-path="url(#SVGID_16_)" fill="url(#SVGID_17_)" points="531.736,578.651 531.012,579.22 530.469,578.526 
			531.193,577.958 		"/>
	</g>
	<g clip-path="url(#SVGID_2_)">
		<defs>
			<path id="SVGID_18_" d="M560.461,578.851c-0.032-0.024-0.064-0.047-0.096-0.069C560.397,578.805,560.429,578.828,560.461,578.851
				 M560.365,578.782c-0.219-0.156-0.44-0.308-0.663-0.455C559.922,578.479,560.145,578.626,560.365,578.782"/>
		</defs>
		<clipPath id="SVGID_19_">
			<use xlink:href="#SVGID_18_"  overflow="visible"/>
		</clipPath>
		
			<linearGradient id="SVGID_20_" gradientUnits="userSpaceOnUse" x1="0" y1="1200" x2="1" y2="1200" gradientTransform="matrix(-0.1713 0.1343 0.1343 0.1713 399.0132 372.9432)">
			<stop  offset="0" style="stop-color:#92E5F7"/>
			<stop  offset="0.5928" style="stop-color:#398CB9"/>
			<stop  offset="1" style="stop-color:#005392"/>
		</linearGradient>
		<polygon clip-path="url(#SVGID_19_)" fill="url(#SVGID_20_)" points="560.715,578.651 559.991,579.22 559.448,578.526 
			560.172,577.958 		"/>
	</g>
	<g clip-path="url(#SVGID_2_)">
		<defs>
			<path id="SVGID_21_" d="M561.446,579.587c-0.176-0.138-0.353-0.275-0.532-0.41C561.093,579.312,561.268,579.451,561.446,579.587
				 M560.914,579.177c-0.046-0.035-0.094-0.07-0.141-0.104C560.82,579.107,560.867,579.142,560.914,579.177"/>
		</defs>
		<clipPath id="SVGID_22_">
			<use xlink:href="#SVGID_21_"  overflow="visible"/>
		</clipPath>
		
			<linearGradient id="SVGID_23_" gradientUnits="userSpaceOnUse" x1="0" y1="1200" x2="1" y2="1200" gradientTransform="matrix(-0.1318 0.1033 0.1033 0.1318 437.2216 421.1546)">
			<stop  offset="0" style="stop-color:#92E5F7"/>
			<stop  offset="0.5928" style="stop-color:#398CB9"/>
			<stop  offset="1" style="stop-color:#005392"/>
		</linearGradient>
		<polygon clip-path="url(#SVGID_22_)" fill="url(#SVGID_23_)" points="561.696,579.391 561.029,579.914 560.523,579.268 
			561.19,578.745 		"/>
	</g>
	<g clip-path="url(#SVGID_2_)">
		<defs>
			<path id="SVGID_24_" d="M570.009,607.706c-0.137,0.419-0.291,0.828-0.439,1.241c0.319-0.833,0.597-1.685,0.829-2.557
				C570.271,606.829,570.151,607.268,570.009,607.706"/>
		</defs>
		<clipPath id="SVGID_25_">
			<use xlink:href="#SVGID_24_"  overflow="visible"/>
		</clipPath>
		
			<linearGradient id="SVGID_26_" gradientUnits="userSpaceOnUse" x1="0" y1="1199.999" x2="1" y2="1199.999" gradientTransform="matrix(-1.3875 1.0875 1.0875 1.3875 -734.434 -1057.7603)">
			<stop  offset="0" style="stop-color:#92E5F7"/>
			<stop  offset="0.5928" style="stop-color:#398CB9"/>
			<stop  offset="1" style="stop-color:#005392"/>
		</linearGradient>
		<polygon clip-path="url(#SVGID_25_)" fill="url(#SVGID_26_)" points="571.64,607.975 569.885,609.35 568.329,607.363 
			570.083,605.988 		"/>
	</g>
	<g clip-path="url(#SVGID_2_)">
		<defs>
			<path id="SVGID_27_" d="M545.592,625.445c-0.443,0-0.881-0.021-1.321-0.033C544.709,625.434,545.149,625.445,545.592,625.445"/>
		</defs>
		<clipPath id="SVGID_28_">
			<use xlink:href="#SVGID_27_"  overflow="visible"/>
		</clipPath>
		
			<linearGradient id="SVGID_29_" gradientUnits="userSpaceOnUse" x1="0" y1="1200" x2="1" y2="1200" gradientTransform="matrix(-0.6345 0.4973 0.4973 0.6345 -51.5914 -136.188)">
			<stop  offset="0" style="stop-color:#92E5F7"/>
			<stop  offset="0.5928" style="stop-color:#398CB9"/>
			<stop  offset="1" style="stop-color:#005392"/>
		</linearGradient>
		<polygon clip-path="url(#SVGID_28_)" fill="url(#SVGID_29_)" points="545.608,625.433 544.773,626.086 544.255,625.425 
			545.089,624.771 		"/>
	</g>
	<g clip-path="url(#SVGID_2_)">
		<defs>
			<path id="SVGID_30_" d="M545.592,625.445c0.443,0,0.883-0.012,1.321-0.033C546.474,625.425,546.035,625.445,545.592,625.445"/>
		</defs>
		<clipPath id="SVGID_31_">
			<use xlink:href="#SVGID_30_"  overflow="visible"/>
		</clipPath>
		
			<linearGradient id="SVGID_32_" gradientUnits="userSpaceOnUse" x1="0" y1="1200" x2="1" y2="1200" gradientTransform="matrix(-0.6602 0.5174 0.5174 0.6602 -74.3804 -166.9709)">
			<stop  offset="0" style="stop-color:#92E5F7"/>
			<stop  offset="0.5928" style="stop-color:#398CB9"/>
			<stop  offset="1" style="stop-color:#005392"/>
		</linearGradient>
		<polygon clip-path="url(#SVGID_31_)" fill="url(#SVGID_32_)" points="546.929,625.433 546.095,626.087 545.576,625.425 
			546.41,624.771 		"/>
	</g>
	<g clip-path="url(#SVGID_2_)">
		<defs>
			<rect id="SVGID_33_" width="1600" height="1200"/>
		</defs>
		<clipPath id="SVGID_34_">
			<use xlink:href="#SVGID_33_"  overflow="visible"/>
		</clipPath>
		<path clip-path="url(#SVGID_34_)" fill="#3CA0A0" d="M547.263,535.338c-0.555-0.02-1.111-0.034-1.671-0.034
			c-14.045,0-26.587,6.426-34.853,16.496c-6.383,7.778-10.217,17.728-10.217,28.574c0,1.635,0.092,3.249,0.262,4.839
			c1.039,9.732,5.172,18.539,11.401,25.414c4.642,5.123,10.452,9.163,17.002,11.726c4.696,1.837,9.774,2.906,15.084,3.059
			c-10.371-0.524-19.113-7.209-22.657-16.465c-0.319-0.832-0.597-1.684-0.829-2.555c-1.484-5.082-2.032-10.225-1.737-15.244
			c0.413-7.022,2.459-13.795,5.897-19.793c4.614-8.049,11.712-14.701,20.647-18.697c1.46-0.653,2.966-1.239,4.521-1.744
			c10.316-3.352,20.963-2.78,30.333,0.887c12.131,4.75,22.119,14.692,26.459,28.05c0.027,0.085,0.052,0.169,0.078,0.254
			c0.005-0.004,0.009-0.008,0.014-0.012C598.839,554.619,575.271,536.052,547.263,535.338"/>
	</g>
	<g clip-path="url(#SVGID_2_)">
		<defs>
			<path id="SVGID_35_" d="M550.112,550.914c-1.555,0.505-3.061,1.091-4.52,1.744c-8.935,3.995-16.034,10.647-20.647,18.696
				c-3.438,5.998-5.485,12.771-5.897,19.793c-0.295,5.019,0.252,10.162,1.737,15.244c-0.563-2.111-0.866-4.328-0.866-6.619
				c0-8.194,3.842-15.484,9.819-20.185c0.223-0.175,0.445-0.348,0.673-0.515c0.031-0.023,0.06-0.048,0.09-0.07
				c0.073-0.052,0.149-0.099,0.222-0.151c0.25-0.179,0.502-0.355,0.759-0.524c4.417-3.037,9.19-5.181,14.11-6.466
				c6.805-1.776,13.879-1.923,20.647-0.507c9.081,1.9,17.601,6.596,24.162,13.859c1.072,1.187,2.094,2.437,3.055,3.76
				c6.376,8.775,9.123,19.078,8.53,29.122c-0.744,12.586-6.732,24.764-17.413,33.018c15.484-11.774,25.487-30.387,25.487-51.34
				c0-6.864-1.077-13.476-3.064-19.68c-0.005,0.004-0.008,0.008-0.013,0.012c-0.027-0.084-0.051-0.169-0.079-0.253
				c-4.34-13.358-14.327-23.302-26.459-28.05c-5.168-2.023-10.726-3.104-16.402-3.105
				C559.429,548.696,554.738,549.41,550.112,550.914"/>
		</defs>
		<clipPath id="SVGID_36_">
			<use xlink:href="#SVGID_35_"  overflow="visible"/>
		</clipPath>
		
			<linearGradient id="SVGID_37_" gradientUnits="userSpaceOnUse" x1="0" y1="1199.8916" x2="1" y2="1199.8916" gradientTransform="matrix(71.5558 51.5718 51.5718 -71.5558 -61347.0039 86436.9609)">
			<stop  offset="0" style="stop-color:#5ABFC5"/>
			<stop  offset="0.4622" style="stop-color:#2FC1B2"/>
			<stop  offset="1" style="stop-color:#00C49D"/>
		</linearGradient>
		<polygon clip-path="url(#SVGID_36_)" fill="url(#SVGID_37_)" points="549.967,505.386 658.639,583.708 578.846,694.422 
			470.174,616.1 		"/>
	</g>
	<g clip-path="url(#SVGID_2_)">
		<defs>
			<path id="SVGID_38_" d="M508.948,652.801c-0.358-0.248-0.718-0.492-1.072-0.746C508.231,652.31,508.589,652.558,508.948,652.801
				 M507.876,652.055c-0.058-0.042-0.117-0.084-0.175-0.126C507.759,651.971,507.817,652.013,507.876,652.055"/>
		</defs>
		<clipPath id="SVGID_39_">
			<use xlink:href="#SVGID_38_"  overflow="visible"/>
		</clipPath>
		
			<linearGradient id="SVGID_40_" gradientUnits="userSpaceOnUse" x1="0" y1="1200" x2="1" y2="1200" gradientTransform="matrix(-0.2764 0.2167 0.2167 0.2764 248.4376 320.5524)">
			<stop  offset="0" style="stop-color:#92E5F7"/>
			<stop  offset="0.5928" style="stop-color:#398CB9"/>
			<stop  offset="1" style="stop-color:#005392"/>
		</linearGradient>
		<polygon clip-path="url(#SVGID_39_)" fill="url(#SVGID_40_)" points="509.371,652.469 508.176,653.406 507.278,652.261 
			508.474,651.323 		"/>
	</g>
	<g clip-path="url(#SVGID_2_)">
		<defs>
			<rect id="SVGID_41_" width="1600" height="1200"/>
		</defs>
		<clipPath id="SVGID_42_">
			<use xlink:href="#SVGID_41_"  overflow="visible"/>
		</clipPath>
		<path clip-path="url(#SVGID_42_)" fill="#3CA0A0" d="M593.457,588.973c-0.961-1.323-1.984-2.574-3.056-3.76
			c-6.561-7.263-15.081-11.959-24.162-13.859c-6.767-1.416-13.841-1.27-20.646,0.508c-4.92,1.284-9.694,3.428-14.11,6.465
			c4.049-2.67,8.897-4.228,14.11-4.228c5.213,0,10.06,1.558,14.109,4.228c0.257,0.169,0.51,0.345,0.76,0.523
			c0.073,0.052,0.148,0.099,0.221,0.152c0.031,0.023,0.06,0.047,0.091,0.07c0.228,0.167,0.451,0.34,0.673,0.515
			c4.334,3.29,7.909,7.218,10.69,11.56c3.793,5.923,6.119,12.606,6.863,19.48c0.999,9.223-0.834,18.777-5.714,27.261
			c-0.797,1.388-1.671,2.746-2.632,4.069c-6.376,8.775-15.326,14.571-25.061,17.111c-12.149,3.169-25.52,1.263-36.644-6.268
			c10.407,7.205,23.028,11.439,36.644,11.439c13.616,0,26.236-4.233,36.643-11.439c0.419-0.282,0.836-0.572,1.249-0.873l0.001-0.001
			c11.363-8.256,17.733-20.825,18.5-33.832C602.578,608.051,599.833,597.748,593.457,588.973"/>
	</g>
	<g clip-path="url(#SVGID_2_)">
		<defs>
			<path id="SVGID_43_" d="M530.501,579.002c-0.03,0.022-0.059,0.047-0.09,0.07c0.103-0.076,0.207-0.148,0.312-0.221
				C530.65,578.903,530.574,578.95,530.501,579.002"/>
		</defs>
		<clipPath id="SVGID_44_">
			<use xlink:href="#SVGID_43_"  overflow="visible"/>
		</clipPath>
		
			<linearGradient id="SVGID_45_" gradientUnits="userSpaceOnUse" x1="0" y1="1200.002" x2="1" y2="1200.002" gradientTransform="matrix(-0.2377 0.1863 0.1863 0.2377 307.1409 293.7002)">
			<stop  offset="0" style="stop-color:#92E5F7"/>
			<stop  offset="0.5928" style="stop-color:#398CB9"/>
			<stop  offset="1" style="stop-color:#005392"/>
		</linearGradient>
		<polygon clip-path="url(#SVGID_44_)" fill="url(#SVGID_45_)" points="530.83,578.988 530.53,579.224 530.304,578.935 
			530.604,578.7 		"/>
	</g>
	<g clip-path="url(#SVGID_2_)">
		<defs>
			<path id="SVGID_46_" d="M496.543,640.259c0.049,0.074,0.099,0.148,0.149,0.224C496.642,640.407,496.592,640.334,496.543,640.259
				 M491.368,629.512c0.028,0.086,0.055,0.173,0.085,0.26C491.423,629.685,491.396,629.599,491.368,629.512 M571.265,599.772
				c0,2.291-0.303,4.507-0.866,6.619c-0.232,0.872-0.51,1.724-0.829,2.557c-1.786,5.005-4.374,9.505-7.572,13.404
				c-4.462,5.438-10.099,9.716-16.406,12.548c-8.463,3.8-18.116,5.009-27.693,2.989c-1.565-0.33-3.128-0.74-4.683-1.247
				c-10.316-3.351-18.594-10.071-24.017-18.547c-7.013-10.956-9.251-24.843-4.939-38.182c-0.003-0.004-0.007-0.008-0.01-0.012
				c-2.026,6.259-3.126,12.937-3.126,19.871c0,20.954,10.002,39.565,25.487,51.34c0.357,0.275,0.718,0.548,1.086,0.813
				c0.001,0.001,0.002,0.002,0.004,0.003c11.361,8.255,25.285,10.428,37.891,7.14c9.736-2.54,18.685-8.336,25.061-17.111
				c0.961-1.323,1.835-2.682,2.633-4.068c4.879-8.483,6.712-18.039,5.714-27.262c-0.745-6.873-3.07-13.557-6.864-19.48
				c-2.781-4.342-6.355-8.27-10.69-11.56C567.422,584.288,571.265,591.578,571.265,599.772"/>
		</defs>
		<clipPath id="SVGID_47_">
			<use xlink:href="#SVGID_46_"  overflow="visible"/>
		</clipPath>
		
			<linearGradient id="SVGID_48_" gradientUnits="userSpaceOnUse" x1="0" y1="1199.9912" x2="1" y2="1199.9912" gradientTransform="matrix(98.1383 0 0 -98.1383 481.125 118385.9844)">
			<stop  offset="0" style="stop-color:#5ABFC5"/>
			<stop  offset="0.4622" style="stop-color:#2FC1B2"/>
			<stop  offset="1" style="stop-color:#00C49D"/>
		</linearGradient>
		<rect x="479.948" y="579.587" clip-path="url(#SVGID_47_)" fill="url(#SVGID_48_)" width="100.05" height="82.77"/>
	</g>
	<g clip-path="url(#SVGID_2_)">
		<defs>
			<path id="SVGID_49_" d="M560.773,579.072c-0.031-0.023-0.059-0.048-0.091-0.07c-0.072-0.052-0.148-0.099-0.221-0.151
				C560.565,578.924,560.67,578.996,560.773,579.072"/>
		</defs>
		<clipPath id="SVGID_50_">
			<use xlink:href="#SVGID_49_"  overflow="visible"/>
		</clipPath>
		
			<linearGradient id="SVGID_51_" gradientUnits="userSpaceOnUse" x1="0" y1="1200" x2="1" y2="1200" gradientTransform="matrix(-0.0675 0.0529 0.0529 0.0675 497.1157 497.8846)">
			<stop  offset="0" style="stop-color:#92E5F7"/>
			<stop  offset="0.5928" style="stop-color:#398CB9"/>
			<stop  offset="1" style="stop-color:#005392"/>
		</linearGradient>
		<polygon clip-path="url(#SVGID_50_)" fill="url(#SVGID_51_)" points="560.88,578.988 560.58,579.224 560.354,578.935 
			560.654,578.7 		"/>
	</g>
	<g clip-path="url(#SVGID_2_)">
		<defs>
			<path id="SVGID_52_" d="M543.924,535.338c-27.94,0.711-51.459,19.187-59.674,44.563l0.01,0.012
				c-4.312,13.339-2.074,27.226,4.939,38.182c5.423,8.476,13.701,15.196,24.017,18.547c1.555,0.507,3.118,0.917,4.683,1.247
				c9.577,2.02,19.23,0.811,27.693-2.989c6.307-2.832,11.944-7.109,16.406-12.548c3.198-3.899,5.786-8.399,7.572-13.404
				c-3.544,9.255-12.286,15.938-22.657,16.465c-0.438,0.021-0.878,0.033-1.321,0.033c-0.443,0-0.883-0.012-1.321-0.033
				c-5.31-0.154-10.388-1.223-15.085-3.061c-6.55-2.562-12.359-6.602-17.001-11.725c-6.229-6.875-10.363-15.682-11.402-25.414
				c-0.17-1.59-0.262-3.203-0.262-4.839c0-10.846,3.834-20.796,10.217-28.573C518.675,542.131,530.557,535.824,543.924,535.338
				c0.555-0.014,1.11-0.034,1.668-0.034C545.034,535.304,544.479,535.324,543.924,535.338"/>
		</defs>
		<clipPath id="SVGID_53_">
			<use xlink:href="#SVGID_52_"  overflow="visible"/>
		</clipPath>
		
			<linearGradient id="SVGID_54_" gradientUnits="userSpaceOnUse" x1="0" y1="1200.0117" x2="1" y2="1200.0117" gradientTransform="matrix(-76 -87 -87 76 104952.125 -90583.1328)">
			<stop  offset="0" style="stop-color:#8DC63F"/>
			<stop  offset="0.5988" style="stop-color:#36A742"/>
			<stop  offset="1" style="stop-color:#009444"/>
		</linearGradient>
		<polygon clip-path="url(#SVGID_53_)" fill="url(#SVGID_54_)" points="518.738,684.312 428.12,580.579 530.78,490.899 
			621.397,594.633 		"/>
	</g>
	<g clip-path="url(#SVGID_2_)">
		<defs>
			<path id="SVGID_55_" d="M484.25,579.901l0.01,0.012c-4.312,13.339-2.074,27.226,4.939,38.182
				c5.423,8.476,13.701,15.196,24.017,18.547c1.555,0.507,3.118,0.917,4.683,1.247c9.577,2.02,19.23,0.811,27.693-2.989
				c6.307-2.832,11.944-7.109,16.406-12.548c3.198-3.899,5.786-8.399,7.572-13.404c-3.544,9.255-12.286,15.938-22.657,16.465
				c-0.438,0.021-0.878,0.033-1.321,0.033c-0.443,0-0.883-0.012-1.321-0.033c-5.31-0.154-10.388-1.223-15.085-3.061
				c-6.55-2.562-12.359-6.602-17.001-11.725c-6.229-6.875-10.363-15.682-11.402-25.414c-0.17-1.59-0.262-3.203-0.262-4.839
				c0-10.846,3.834-20.796,10.217-28.573c7.937-9.67,19.819-15.977,33.186-16.463C515.984,536.049,492.465,554.525,484.25,579.901"
				/>
		</defs>
		<clipPath id="SVGID_56_">
			<use xlink:href="#SVGID_55_"  overflow="visible"/>
		</clipPath>
		
			<linearGradient id="SVGID_57_" gradientUnits="userSpaceOnUse" x1="0" y1="1200.0068" x2="1" y2="1200.0068" gradientTransform="matrix(-76 -87 -87 76 104951.625 -90582.7109)">
			<stop  offset="0" style="stop-color:#5ABFC5"/>
			<stop  offset="0.4622" style="stop-color:#2FC1B2"/>
			<stop  offset="1" style="stop-color:#00C49D"/>
		</linearGradient>
		<polygon clip-path="url(#SVGID_56_)" fill="url(#SVGID_57_)" points="518.738,684.312 428.137,580.598 530.78,490.933 
			621.381,594.648 		"/>
	</g>
	<g clip-path="url(#SVGID_2_)">
		<defs>
			<rect id="SVGID_58_" width="1600" height="1200"/>
		</defs>
		<clipPath id="SVGID_59_">
			<use xlink:href="#SVGID_58_"  overflow="visible"/>
		</clipPath>
		<path clip-path="url(#SVGID_59_)" fill="#FFFFFF" d="M642.757,629.976v-51.174h-18.444v-4.52c0-1.808,0.633-3.345,1.898-4.611
			c1.266-1.266,2.804-1.899,4.611-1.899h43.037v11.03h-18.263v51.174H642.757z"/>
		<path clip-path="url(#SVGID_59_)" fill="#FFFFFF" d="M718.161,581.877v28.208c0,8.561-2.231,14.167-6.69,16.816
			c-4.461,2.653-9.344,3.979-14.647,3.979c-5.184-0.243-9.917-1.687-14.194-4.339c-4.281-2.651-6.42-8.139-6.42-16.456v-28.208
			h12.658v30.74c0,2.893,0.841,5.004,2.532,6.328c1.686,1.328,3.615,1.989,5.786,1.989c2.17,0,4.128-0.661,5.876-1.989
			c1.746-1.324,2.623-3.436,2.623-6.328v-24.592c0-1.687,0.571-3.134,1.717-4.34c1.144-1.204,2.622-1.808,4.43-1.808H718.161z"/>
		<path clip-path="url(#SVGID_59_)" fill="#FFFFFF" d="M721.624,629.976v-23.326c0-4.701,0.692-8.648,2.079-11.844
			c1.385-3.193,3.283-5.756,5.697-7.686c2.288-1.808,4.972-3.133,8.047-3.979c3.073-0.841,6.238-1.265,9.492-1.265h0.905h0.904
			v12.838h-4.16c-3.497,0-6.088,0.845-7.774,2.531c-1.691,1.69-2.532,4.34-2.532,7.957v24.772H721.624z"/>
		<path clip-path="url(#SVGID_59_)" fill="#FFFFFF" d="M793.438,629.976h-6.329c-1.808,0-3.286-0.569-4.43-1.718
			c-1.146-1.144-1.717-2.622-1.717-4.43v-24.593c0-2.892-0.877-5-2.623-6.328c-1.748-1.325-3.706-1.989-5.876-1.989
			c-2.171,0-4.1,0.664-5.786,1.989c-1.691,1.328-2.532,3.436-2.532,6.328v30.741h-12.658v-28.208c0-8.197,2.139-13.681,6.42-16.456
			c4.277-2.771,9.01-4.278,14.194-4.521c5.303,0,10.186,1.388,14.647,4.16c4.459,2.774,6.69,8.38,6.69,16.817V629.976z"/>
		<path clip-path="url(#SVGID_59_)" fill="#FFFFFF" d="M804.341,625.636c-2.532-2.169-4.34-5.091-5.425-8.77
			c-1.085-3.677-1.627-7.505-1.627-11.482c0-3.255,0.452-6.51,1.357-9.765c0.903-3.255,2.319-5.967,4.248-8.137
			c3.134-3.616,7.17-5.755,12.115-6.419c4.942-0.661,9.404-0.271,13.382,1.175c4.579,1.809,7.956,4.945,10.125,9.403
			c2.049,3.978,3.075,8.62,3.075,13.924c0,3.859-0.423,7.173-1.266,9.945c-0.846,2.775-1.931,5.125-3.256,7.053
			c-2.893,3.979-6.571,6.45-11.029,7.413c-3.979,1.085-7.988,1.176-12.025,0.271C809.975,629.343,806.751,627.807,804.341,625.636
			 M813.021,593.811c-2.532,2.775-3.679,6.903-3.436,12.387c0.241,5.487,1.265,9.312,3.073,11.482
			c0.724,0.966,1.989,1.78,3.799,2.441c1.808,0.664,3.644,0.724,5.514,0.181c1.868-0.543,3.526-1.899,4.974-4.068
			c1.446-2.17,2.229-5.665,2.35-10.487c0-4.34-0.695-7.595-2.079-9.765c-1.387-2.17-2.984-3.554-4.792-4.159
			c-1.81-0.601-3.616-0.633-5.424-0.091C815.19,592.274,813.863,592.969,813.021,593.811"/>
		<path clip-path="url(#SVGID_59_)" fill="#FFFFFF" d="M868.814,629.976h-12.839l-16.816-48.099h13.381l9.584,33.812l8.499-29.473
			c0.963-2.894,2.892-4.34,5.785-4.34h9.403L868.814,629.976z"/>
		<path clip-path="url(#SVGID_59_)" fill="#FFFFFF" d="M921.435,615.147h9.041c-1.328,5.064-3.857,8.923-7.593,11.573
			c-3.739,2.775-8.44,4.159-14.105,4.159c-6.87,0-12.235-2.229-16.093-6.69c-3.86-4.34-5.787-10.547-5.787-18.625
			c0-7.713,1.868-13.743,5.605-18.083c3.856-4.458,9.222-6.691,16.093-6.691c7.234,0,12.839,2.171,16.817,6.511
			c3.857,4.461,5.787,10.668,5.787,18.624v1.266v0.724c0,0.604-0.062,1.025-0.182,1.266h-31.282c0.118,3.738,1.023,6.51,2.713,8.318
			c1.564,1.93,3.916,2.893,7.052,2.893c2.049,0,3.797-0.421,5.244-1.265c0.361-0.119,0.691-0.331,0.995-0.633
			c0.299-0.301,0.633-0.634,0.993-0.995c0.119-0.362,0.571-0.843,1.356-1.447C918.873,615.451,919.99,615.147,921.435,615.147
			 M899.736,601.044h18.444c-0.243-3.254-1.085-5.665-2.532-7.233c-1.567-1.687-3.797-2.531-6.689-2.531
			c-2.653,0-4.824,0.844-6.51,2.531C900.76,595.501,899.854,597.911,899.736,601.044"/>
		<path clip-path="url(#SVGID_59_)" fill="#FFFFFF" d="M934.662,629.976v-23.326c0-4.701,0.692-8.648,2.079-11.844
			c1.386-3.193,3.283-5.756,5.697-7.686c2.288-1.808,4.972-3.133,8.047-3.979c3.073-0.841,6.238-1.265,9.492-1.265h0.905h0.903
			v12.838h-4.159c-3.497,0-6.089,0.845-7.774,2.531c-1.691,1.69-2.532,4.34-2.532,7.957v24.772H934.662z"/>
		<path clip-path="url(#SVGID_59_)" fill="#FFFFFF" d="M965.997,629.976v-55.694c0-1.808,0.633-3.345,1.899-4.611
			s2.803-1.899,4.611-1.899h22.783c6.389,0,11.27,1.329,14.646,3.979c3.374,2.893,5.063,6.811,5.063,11.753
			c0,3.136-0.663,5.786-1.988,7.956c-1.328,2.052-3.197,3.679-5.606,4.883c3.133,1.328,5.543,3.195,7.233,5.605
			c1.565,2.291,2.352,5.306,2.352,9.042c0,6.028-1.932,10.729-5.787,14.104c-3.979,3.255-9.584,4.882-16.817,4.882H965.997z
			 M978.294,591.822h14.646c3.134,0,5.426-0.543,6.871-1.627c1.447-1.085,2.171-2.772,2.171-5.064c0-2.288-0.724-3.978-2.171-5.063
			c-1.206-0.963-3.556-1.446-7.051-1.446h-14.466V591.822z M978.294,618.765h15.188c3.374,0,5.969-0.661,7.776-1.989
			c1.687-1.202,2.533-3.255,2.533-6.147c0-2.894-0.847-5.001-2.533-6.329c-1.568-1.204-4.221-1.809-7.956-1.809h-15.008V618.765z"/>
		<path clip-path="url(#SVGID_59_)" fill="#FFFFFF" d="M1062.946,629.976h-6.329c-1.808,0-3.285-0.569-4.43-1.718
			c-1.146-1.144-1.717-2.622-1.717-4.43v-24.593c0-2.892-0.877-5-2.623-6.328c-1.748-1.325-3.706-1.989-5.876-1.989
			c-2.171,0-4.101,0.664-5.786,1.989c-1.691,1.328-2.532,3.436-2.532,6.328v30.741h-12.657v-28.208
			c0-8.197,2.139-13.681,6.42-16.456c4.276-2.771,9.01-4.278,14.193-4.521c5.303,0,10.187,1.388,14.647,4.16
			c4.459,2.774,6.689,8.38,6.689,16.817V629.976z"/>
		<path clip-path="url(#SVGID_59_)" fill="#FFFFFF" d="M1067.882,629.976v-55.694c0-1.808,0.635-3.345,1.9-4.611
			s2.802-1.899,4.611-1.899h22.782c6.39,0,11.271,1.329,14.647,3.979c3.374,2.893,5.063,6.811,5.063,11.753
			c0,3.136-0.663,5.786-1.988,7.956c-1.328,2.052-3.197,3.679-5.607,4.883c3.133,1.328,5.543,3.195,7.234,5.605
			c1.564,2.291,2.351,5.306,2.351,9.042c0,6.028-1.931,10.729-5.787,14.104c-3.978,3.255-9.584,4.882-16.816,4.882H1067.882z
			 M1080.18,591.822h14.646c3.133,0,5.425-0.543,6.871-1.627c1.447-1.085,2.171-2.772,2.171-5.064c0-2.288-0.724-3.978-2.171-5.063
			c-1.205-0.963-3.556-1.446-7.051-1.446h-14.466V591.822z M1080.18,618.765h15.188c3.374,0,5.968-0.661,7.776-1.989
			c1.687-1.202,2.532-3.255,2.532-6.147c0-2.894-0.846-5.001-2.532-6.329c-1.568-1.204-4.222-1.809-7.956-1.809h-15.008V618.765z"/>
	</g>
	<g clip-path="url(#SVGID_2_)">
		<defs>
			<path id="SVGID_60_" d="M496.543,640.259c0.049,0.074,0.099,0.148,0.149,0.224C496.642,640.407,496.592,640.334,496.543,640.259
				 M491.368,629.512c0.028,0.086,0.055,0.173,0.085,0.26C491.423,629.685,491.396,629.599,491.368,629.512 M571.265,599.772
				c0,2.291-0.303,4.507-0.866,6.619c-0.232,0.872-0.51,1.724-0.829,2.557c-1.786,5.005-4.374,9.505-7.572,13.404
				c-4.462,5.438-10.099,9.716-16.406,12.548c-8.463,3.8-18.116,5.009-27.693,2.989c-1.565-0.33-3.128-0.74-4.683-1.247
				c-10.316-3.351-18.594-10.071-24.017-18.547c-7.013-10.956-9.251-24.843-4.939-38.182c-0.003-0.004-0.007-0.008-0.01-0.012
				c-2.026,6.259-3.126,12.937-3.126,19.871c0,20.954,10.002,39.565,25.487,51.34c0.357,0.275,0.718,0.548,1.086,0.813
				c0.001,0.001,0.002,0.002,0.004,0.003c11.361,8.255,25.285,10.428,37.891,7.14c9.736-2.54,18.685-8.336,25.061-17.111
				c0.961-1.323,1.835-2.682,2.633-4.068c4.879-8.483,6.712-18.039,5.714-27.262c-0.745-6.873-3.07-13.557-6.864-19.48
				c-2.781-4.342-6.355-8.27-10.69-11.56C567.422,584.288,571.265,591.578,571.265,599.772"/>
		</defs>
		<clipPath id="SVGID_61_">
			<use xlink:href="#SVGID_60_"  overflow="visible"/>
		</clipPath>
		<defs>
			<filter id="Adobe_OpacityMaskFilter" filterUnits="userSpaceOnUse" x="449.888" y="543.251" width="160.169" height="155.44">
				<feColorMatrix  type="matrix" values="1 0 0 0 0  0 1 0 0 0  0 0 1 0 0  0 0 0 1 0"/>
			</filter>
		</defs>
		<mask maskUnits="userSpaceOnUse" x="449.888" y="543.251" width="160.169" height="155.44" id="SVGID_62_">
			<g filter="url(#Adobe_OpacityMaskFilter)">
				
					<linearGradient id="SVGID_63_" gradientUnits="userSpaceOnUse" x1="0" y1="1200.043" x2="1" y2="1200.043" gradientTransform="matrix(-131.25 -56.5 -56.5 131.25 68425.3672 -156844.5625)">
					<stop  offset="0" style="stop-color:#FFFFFF"/>
					<stop  offset="0.2533" style="stop-color:#BCBCBC"/>
					<stop  offset="0.7722" style="stop-color:#363636"/>
					<stop  offset="1" style="stop-color:#000000"/>
				</linearGradient>
				<polygon clip-path="url(#SVGID_61_)" fill="url(#SVGID_63_)" points="564.356,698.691 449.888,649.416 495.59,543.251 
					610.058,592.527 				"/>
			</g>
		</mask>
		
			<linearGradient id="SVGID_64_" gradientUnits="userSpaceOnUse" x1="0" y1="1200.043" x2="1" y2="1200.043" gradientTransform="matrix(-131.25 -56.5 -56.5 131.25 68425.375 -156844.5625)">
			<stop  offset="0" style="stop-color:#5A74C5"/>
			<stop  offset="0.4623" style="stop-color:#2F78B2"/>
			<stop  offset="1" style="stop-color:#007C9D"/>
		</linearGradient>
		<polygon clip-path="url(#SVGID_61_)" mask="url(#SVGID_62_)" fill="url(#SVGID_64_)" points="564.356,698.691 449.888,649.416 
			495.59,543.251 610.058,592.527 		"/>
	</g>
</g>
</svg>
