<?xml version="1.0" encoding="utf-8"?>
<!-- Generator: Adobe Illustrator 17.1.0, SVG Export Plug-In . SVG Version: 6.00 Build 0)  -->
<!DOCTYPE svg PUBLIC "-//W3C//DTD SVG 1.1//EN" "http://www.w3.org/Graphics/SVG/1.1/DTD/svg11.dtd">
<svg version="1.1" id="Layer_1" xmlns="http://www.w3.org/2000/svg" xmlns:xlink="http://www.w3.org/1999/xlink" x="0px" y="0px"
	 viewBox="0 0 1600 1200" enable-background="new 0 0 1600 1200" xml:space="preserve">
<g>
	<g>
		<g>
			<linearGradient id="SVGID_1_" gradientUnits="userSpaceOnUse" x1="507.2439" y1="651.4488" x2="507.0247" y2="651.6205">
				<stop  offset="0" style="stop-color:#92E5F7"/>
				<stop  offset="0.6144" style="stop-color:#3689B7"/>
				<stop  offset="1" style="stop-color:#005392"/>
			</linearGradient>
			<path fill="url(#SVGID_1_)" d="M506.6,651.1c0.4,0.3,0.7,0.5,1.1,0.8C507.3,651.7,507,651.4,506.6,651.1z"/>
			<linearGradient id="SVGID_2_" gradientUnits="userSpaceOnUse" x1="507.6989" y1="651.9273" x2="507.6982" y2="651.9279">
				<stop  offset="0" style="stop-color:#92E5F7"/>
				<stop  offset="0.6144" style="stop-color:#3689B7"/>
				<stop  offset="1" style="stop-color:#005392"/>
			</linearGradient>
			<polygon fill="url(#SVGID_2_)" points="507.7,651.9 507.7,651.9 507.7,651.9 			"/>
			<linearGradient id="SVGID_3_" gradientUnits="userSpaceOnUse" x1="521.4348" y1="607.4842" x2="520.8596" y2="607.9351">
				<stop  offset="0" style="stop-color:#92E5F7"/>
				<stop  offset="0.6144" style="stop-color:#3689B7"/>
				<stop  offset="1" style="stop-color:#005392"/>
			</linearGradient>
			<path fill="url(#SVGID_3_)" d="M520.8,606.4c0.2,0.9,0.5,1.7,0.8,2.6c-0.1-0.4-0.3-0.8-0.4-1.2
				C521,607.3,520.9,606.8,520.8,606.4z"/>
			<linearGradient id="SVGID_4_" gradientUnits="userSpaceOnUse" x1="530.2905" y1="579.16" x2="529.7629" y2="579.5735">
				<stop  offset="0" style="stop-color:#92E5F7"/>
				<stop  offset="0.6144" style="stop-color:#3689B7"/>
				<stop  offset="1" style="stop-color:#005392"/>
			</linearGradient>
			<path fill="url(#SVGID_4_)" d="M529.7,579.6c0.2-0.2,0.4-0.3,0.7-0.5C530.2,579.2,530,579.4,529.7,579.6z"/>
			<linearGradient id="SVGID_5_" gradientUnits="userSpaceOnUse" x1="531.337" y1="578.4046" x2="530.7639" y2="578.8538">
				<stop  offset="0" style="stop-color:#92E5F7"/>
				<stop  offset="0.6144" style="stop-color:#3689B7"/>
				<stop  offset="1" style="stop-color:#005392"/>
			</linearGradient>
			<path fill="url(#SVGID_5_)" d="M530.7,578.9c0.3-0.2,0.5-0.3,0.8-0.5C531.2,578.5,531,578.7,530.7,578.9z"/>
			<linearGradient id="SVGID_6_" gradientUnits="userSpaceOnUse" x1="560.1519" y1="578.5336" x2="559.9805" y2="578.6678">
				<stop  offset="0" style="stop-color:#92E5F7"/>
				<stop  offset="0.6144" style="stop-color:#3689B7"/>
				<stop  offset="1" style="stop-color:#005392"/>
			</linearGradient>
			<path fill="url(#SVGID_6_)" d="M559.7,578.3c0.3,0.2,0.5,0.3,0.8,0.5C560.2,578.7,560,578.5,559.7,578.3z"/>
			<linearGradient id="SVGID_7_" gradientUnits="userSpaceOnUse" x1="561.1635" y1="579.287" x2="561.0317" y2="579.3903">
				<stop  offset="0" style="stop-color:#92E5F7"/>
				<stop  offset="0.6144" style="stop-color:#3689B7"/>
				<stop  offset="1" style="stop-color:#005392"/>
			</linearGradient>
			<path fill="url(#SVGID_7_)" d="M560.8,579.1c0.2,0.2,0.4,0.3,0.7,0.5C561.2,579.4,561,579.2,560.8,579.1z"/>
			<linearGradient id="SVGID_8_" gradientUnits="userSpaceOnUse" x1="570.5529" y1="607.2235" x2="569.1653" y2="608.311">
				<stop  offset="0" style="stop-color:#92E5F7"/>
				<stop  offset="0.6144" style="stop-color:#3689B7"/>
				<stop  offset="1" style="stop-color:#005392"/>
			</linearGradient>
			<path fill="url(#SVGID_8_)" d="M569.6,608.9c0.3-0.8,0.6-1.7,0.8-2.6c-0.1,0.4-0.2,0.9-0.4,1.3
				C569.9,608.1,569.7,608.5,569.6,608.9z"/>
			<linearGradient id="SVGID_9_" gradientUnits="userSpaceOnUse" x1="545.1912" y1="625.2248" x2="544.5566" y2="625.7221">
				<stop  offset="0" style="stop-color:#92E5F7"/>
				<stop  offset="0.6144" style="stop-color:#3689B7"/>
				<stop  offset="1" style="stop-color:#005392"/>
			</linearGradient>
			<path fill="url(#SVGID_9_)" d="M545.6,625.4c-0.4,0-0.9,0-1.3,0C544.7,625.4,545.1,625.4,545.6,625.4z"/>
			<linearGradient id="SVGID_10_" gradientUnits="userSpaceOnUse" x1="546.5229" y1="625.2166" x2="545.8628" y2="625.734">
				<stop  offset="0" style="stop-color:#92E5F7"/>
				<stop  offset="0.6144" style="stop-color:#3689B7"/>
				<stop  offset="1" style="stop-color:#005392"/>
			</linearGradient>
			<path fill="url(#SVGID_10_)" d="M546.9,625.4c-0.4,0-0.9,0-1.3,0C546,625.4,546.5,625.4,546.9,625.4z"/>
			<path fill="#3CA0A0" d="M547.3,535.3c-0.6,0-1.1,0-1.7,0c-14,0-26.6,6.4-34.9,16.5c-6.4,7.8-10.2,17.7-10.2,28.6
				c0,1.6,0.1,3.2,0.3,4.8c1,9.7,5.2,18.5,11.4,25.4c4.6,5.1,10.5,9.2,17,11.7c4.7,1.8,9.8,2.9,15.1,3.1
				c-10.4-0.5-19.1-7.2-22.7-16.5c-0.3-0.8-0.6-1.7-0.8-2.6c-1.5-5.1-2-10.2-1.7-15.2c0.4-7,2.5-13.8,5.9-19.8
				c4.6-8,11.7-14.7,20.6-18.7c1.5-0.7,3-1.2,4.5-1.7c10.3-3.4,21-2.8,30.3,0.9c12.1,4.7,22.1,14.7,26.5,28c0,0.1,0.1,0.2,0.1,0.3
				c0,0,0,0,0,0C598.8,554.6,575.3,536.1,547.3,535.3z"/>
			<linearGradient id="SVGID_11_" gradientUnits="userSpaceOnUse" x1="539.1452" y1="569.9509" x2="610.701" y2="621.5226">
				<stop  offset="0" style="stop-color:#5ABFC5"/>
				<stop  offset="0.3943" style="stop-color:#35C1B5"/>
				<stop  offset="1" style="stop-color:#00C49D"/>
			</linearGradient>
			<path fill="url(#SVGID_11_)" d="M607,580.1C607,580.1,607,580.1,607,580.1L607,580.1c0-0.1-0.1-0.2-0.1-0.2
				c-4.3-13.4-14.3-23.3-26.5-28c-9.4-3.7-20-4.2-30.3-0.9c-1.6,0.5-3.1,1.1-4.5,1.7c-8.9,4-16,10.6-20.6,18.7
				c-3.4,6-5.5,12.8-5.9,19.8c-0.3,5,0.3,10.2,1.7,15.2c-0.6-2.1-0.9-4.3-0.9-6.6c0-8.2,3.8-15.5,9.8-20.2c0.2-0.2,0.4-0.3,0.7-0.5
				c0,0,0.1,0,0.1-0.1c0.1-0.1,0.1-0.1,0.2-0.2c0.3-0.2,0.5-0.4,0.8-0.5c4.4-3,9.2-5.2,14.1-6.5c6.8-1.8,13.9-1.9,20.6-0.5
				c9.1,1.9,17.6,6.6,24.2,13.9c1.1,1.2,2.1,2.4,3.1,3.8c6.4,8.8,9.1,19.1,8.5,29.1c0.2-0.3,0.4-0.7,0.6-1c-0.2,0.3-0.4,0.7-0.6,1
				c-0.7,12.6-6.7,24.8-17.4,33c15.5-11.8,25.5-30.4,25.5-51.3C610.1,592.9,609,586.3,607,580.1z"/>
			<linearGradient id="SVGID_12_" gradientUnits="userSpaceOnUse" x1="508.4376" y1="652.2762" x2="508.1611" y2="652.4929">
				<stop  offset="0" style="stop-color:#92E5F7"/>
				<stop  offset="0.6144" style="stop-color:#3689B7"/>
				<stop  offset="1" style="stop-color:#005392"/>
			</linearGradient>
			<path fill="url(#SVGID_12_)" d="M508.9,652.8c-0.4-0.3-0.8-0.6-1.2-0.9C508.1,652.2,508.5,652.5,508.9,652.8z"/>
			<path fill="#3CA0A0" d="M593.5,589c-1-1.3-2-2.6-3.1-3.8c-6.6-7.3-15.1-12-24.2-13.9c-6.8-1.4-13.8-1.3-20.6,0.5
				c-4.9,1.3-9.7,3.4-14.1,6.5c4-2.7,8.9-4.2,14.1-4.2s10.1,1.6,14.1,4.2c0.3,0.2,0.5,0.3,0.8,0.5c0.1,0.1,0.1,0.1,0.2,0.2
				c0,0,0.1,0,0.1,0.1c0.2,0.2,0.5,0.3,0.7,0.5c4.3,3.3,7.9,7.2,10.7,11.6c3.8,5.9,6.1,12.6,6.9,19.5c1,9.2-0.8,18.8-5.7,27.3
				c-0.8,1.4-1.7,2.7-2.6,4.1c-6.4,8.8-15.3,14.6-25.1,17.1c-12.1,3.2-25.5,1.3-36.6-6.3c10.4,7.2,23,11.4,36.6,11.4
				c13.6,0,26.2-4.2,36.6-11.4c0.4-0.3,0.8-0.6,1.2-0.9l0,0c11.4-8.3,17.7-20.8,18.5-33.8C602.6,608.1,599.8,597.7,593.5,589z"/>
			<linearGradient id="SVGID_13_" gradientUnits="userSpaceOnUse" x1="530.6641" y1="578.8846" x2="530.4264" y2="579.0709">
				<stop  offset="0" style="stop-color:#92E5F7"/>
				<stop  offset="0.6144" style="stop-color:#3689B7"/>
				<stop  offset="1" style="stop-color:#005392"/>
			</linearGradient>
			<path fill="url(#SVGID_13_)" d="M530.5,579C530.5,579,530.4,579,530.5,579c0,0,0.1-0.1,0.2-0.2
				C530.6,578.9,530.6,578.9,530.5,579z"/>
			<linearGradient id="SVGID_14_" gradientUnits="userSpaceOnUse" x1="481.1241" y1="620.0618" x2="579.2623" y2="620.0618">
				<stop  offset="0" style="stop-color:#5ABFC5"/>
				<stop  offset="0.3943" style="stop-color:#35C1B5"/>
				<stop  offset="1" style="stop-color:#00C49D"/>
			</linearGradient>
			<path fill="url(#SVGID_14_)" d="M579,610.6c-0.7-6.9-3.1-13.6-6.9-19.5c-2.8-4.3-6.4-8.3-10.7-11.6c6,4.7,9.8,12,9.8,20.2
				c0,2.3-0.3,4.5-0.9,6.6c-0.2,0.9-0.5,1.7-0.8,2.6c-1.8,5-4.4,9.5-7.6,13.4c-4.5,5.4-10.1,9.7-16.4,12.5c-8.5,3.8-18.1,5-27.7,3
				c-1.6-0.3-3.1-0.7-4.7-1.2c-10.3-3.4-18.6-10.1-24-18.5c-7-11-9.3-24.8-4.9-38.2c0,0,0,0,0,0c-2,6.3-3.1,12.9-3.1,19.9
				c0,21,10,39.6,25.5,51.3c0.4,0.3,0.7,0.5,1.1,0.8c0,0,0,0,0,0c11.4,8.3,25.3,10.4,37.9,7.1c9.7-2.5,18.7-8.3,25.1-17.1
				c1-1.3,1.8-2.7,2.6-4.1C578.2,629.4,580,619.9,579,610.6z M489.4,620.5C489.4,620.4,489.4,620.4,489.4,620.5
				C489.4,620.4,489.4,620.4,489.4,620.5z M494.2,636.4c0-0.1-0.1-0.2-0.1-0.3C494.2,636.2,494.2,636.3,494.2,636.4z M493.2,634.2
				c0-0.1-0.1-0.2-0.1-0.3C493.1,634,493.2,634.1,493.2,634.2z M492.3,632c0-0.1-0.1-0.2-0.1-0.3C492.2,631.8,492.2,631.9,492.3,632
				z M491.5,629.8c0-0.1-0.1-0.2-0.1-0.3C491.4,629.6,491.4,629.7,491.5,629.8z M490.8,627.5c0-0.1,0-0.2-0.1-0.2
				C490.7,627.3,490.7,627.4,490.8,627.5z M490.2,625.2c0-0.1,0-0.1,0-0.2C490.2,625,490.2,625.1,490.2,625.2z M489.7,622.8
				c0-0.1,0-0.1,0-0.2C489.7,622.7,489.7,622.8,489.7,622.8z M495.3,638.2c0,0.1,0.1,0.2,0.1,0.2
				C495.4,638.4,495.3,638.3,495.3,638.2z M496.5,640.3c0,0.1,0.1,0.1,0.1,0.2C496.6,640.4,496.6,640.3,496.5,640.3z M497.9,642.3
				c0,0.1,0.1,0.1,0.1,0.2C498,642.4,498,642.3,497.9,642.3z M499.4,644.2c0,0.1,0.1,0.1,0.1,0.2
				C499.5,644.3,499.5,644.2,499.4,644.2z M501.1,646c0,0,0.1,0.1,0.1,0.1C501.1,646.1,501.1,646.1,501.1,646z M502.8,647.8
				C502.8,647.8,502.9,647.9,502.8,647.8C502.9,647.9,502.8,647.8,502.8,647.8z"/>
			<linearGradient id="SVGID_15_" gradientUnits="userSpaceOnUse" x1="560.645" y1="578.9392" x2="560.5774" y2="578.9921">
				<stop  offset="0" style="stop-color:#92E5F7"/>
				<stop  offset="0.6144" style="stop-color:#3689B7"/>
				<stop  offset="1" style="stop-color:#005392"/>
			</linearGradient>
			<path fill="url(#SVGID_15_)" d="M560.7,579c-0.1-0.1-0.1-0.1-0.2-0.2C560.6,578.9,560.7,579,560.7,579
				C560.7,579,560.7,579,560.7,579z"/>
			<g>
				<linearGradient id="SVGID_16_" gradientUnits="userSpaceOnUse" x1="552.1545" y1="616.8696" x2="476.1545" y2="529.8696">
					<stop  offset="0" style="stop-color:#8DC63F"/>
					<stop  offset="0.6015" style="stop-color:#36A742"/>
					<stop  offset="1" style="stop-color:#009444"/>
				</linearGradient>
				<path fill="url(#SVGID_16_)" d="M484.2,579.9c8.2-25.4,31.7-43.9,59.7-44.6c0.6,0,1.1,0,1.7,0c-0.6,0-1.1,0-1.7,0
					c-13.4,0.5-25.2,6.8-33.2,16.5c-6.4,7.8-10.2,17.7-10.2,28.6c0,1.6,0.1,3.2,0.3,4.8c1,9.7,5.2,18.5,11.4,25.4
					c4.6,5.1,10.5,9.2,17,11.7c4.7,1.8,9.8,2.9,15.1,3.1c0.4,0,0.9,0,1.3,0c0.4,0,0.9,0,1.3,0c10.4-0.5,19.1-7.2,22.7-16.5
					c-1.8,5-4.4,9.5-7.6,13.4c-4.5,5.4-10.1,9.7-16.4,12.5c-8.5,3.8-18.1,5-27.7,3c-1.6-0.3-3.1-0.7-4.7-1.2
					c-10.3-3.4-18.6-10.1-24-18.5C482.2,607.1,479.9,593.3,484.2,579.9C484.3,579.9,484.3,579.9,484.2,579.9z"/>
				<linearGradient id="SVGID_17_" gradientUnits="userSpaceOnUse" x1="551.6731" y1="617.29" x2="475.6731" y2="530.29">
					<stop  offset="0" style="stop-color:#5ABFC5"/>
					<stop  offset="0.3943" style="stop-color:#35C1B5"/>
					<stop  offset="1" style="stop-color:#00C49D"/>
				</linearGradient>
				<path fill="url(#SVGID_17_)" d="M489.2,618.1c5.4,8.5,13.7,15.2,24,18.5c1.6,0.5,3.1,0.9,4.7,1.2c9.6,2,19.2,0.8,27.7-3
					c6.3-2.8,11.9-7.1,16.4-12.5c3.2-3.9,5.8-8.4,7.6-13.4c-3.5,9.3-12.3,15.9-22.7,16.5c-0.4,0-0.9,0-1.3,0c-0.4,0-0.9,0-1.3,0
					c-5.3-0.2-10.4-1.2-15.1-3.1c-6.6-2.6-12.4-6.6-17-11.7c-6.2-6.9-10.4-15.7-11.4-25.4c-0.2-1.6-0.3-3.2-0.3-4.8
					c0-10.8,3.8-20.8,10.2-28.6c7.9-9.7,19.8-16,33.2-16.5c-27.9,0.7-51.5,19.2-59.7,44.6c0,0,0,0,0,0
					C479.9,593.3,482.2,607.1,489.2,618.1z"/>
			</g>
		</g>
	</g>
	<g>
		<path fill="#414042" d="M642.8,630v-51.2h-18.4v-4.5c0-1.8,0.6-3.3,1.9-4.6c1.3-1.3,2.8-1.9,4.6-1.9h43v11h-18.3V630H642.8z"/>
		<path fill="#414042" d="M718.2,581.9v28.2c0,8.6-2.2,14.2-6.7,16.8c-4.5,2.7-9.3,4-14.6,4c-5.2-0.2-9.9-1.7-14.2-4.3
			c-4.3-2.7-6.4-8.1-6.4-16.5v-28.2h12.7v30.7c0,2.9,0.8,5,2.5,6.3c1.7,1.3,3.6,2,5.8,2c2.2,0,4.1-0.7,5.9-2
			c1.7-1.3,2.6-3.4,2.6-6.3V588c0-1.7,0.6-3.1,1.7-4.3c1.1-1.2,2.6-1.8,4.4-1.8H718.2z"/>
		<path fill="#414042" d="M721.6,630v-23.3c0-4.7,0.7-8.6,2.1-11.8c1.4-3.2,3.3-5.8,5.7-7.7c2.3-1.8,5-3.1,8-4
			c3.1-0.8,6.2-1.3,9.5-1.3c0.2,0,0.5,0,0.9,0c0.4,0,0.7,0,0.9,0v12.8h-4.2c-3.5,0-6.1,0.8-7.8,2.5c-1.7,1.7-2.5,4.3-2.5,8V630
			H721.6z"/>
		<path fill="#414042" d="M793.4,630h-6.3c-1.8,0-3.3-0.6-4.4-1.7c-1.1-1.1-1.7-2.6-1.7-4.4v-24.6c0-2.9-0.9-5-2.6-6.3
			c-1.7-1.3-3.7-2-5.9-2c-2.2,0-4.1,0.7-5.8,2c-1.7,1.3-2.5,3.4-2.5,6.3V630h-12.7v-28.2c0-8.2,2.1-13.7,6.4-16.5
			c4.3-2.8,9-4.3,14.2-4.5c5.3,0,10.2,1.4,14.6,4.2c4.5,2.8,6.7,8.4,6.7,16.8V630z"/>
		<path fill="#414042" d="M804.3,625.6c-2.5-2.2-4.3-5.1-5.4-8.8c-1.1-3.7-1.6-7.5-1.6-11.5c0-3.3,0.5-6.5,1.4-9.8
			c0.9-3.3,2.3-6,4.2-8.1c3.1-3.6,7.2-5.8,12.1-6.4c4.9-0.7,9.4-0.3,13.4,1.2c4.6,1.8,8,4.9,10.1,9.4c2,4,3.1,8.6,3.1,13.9
			c0,3.9-0.4,7.2-1.3,9.9c-0.8,2.8-1.9,5.1-3.3,7.1c-2.9,4-6.6,6.5-11,7.4c-4,1.1-8,1.2-12,0.3C810,629.3,806.8,627.8,804.3,625.6z
			 M813,593.8c-2.5,2.8-3.7,6.9-3.4,12.4c0.2,5.5,1.3,9.3,3.1,11.5c0.7,1,2,1.8,3.8,2.4c1.8,0.7,3.6,0.7,5.5,0.2
			c1.9-0.5,3.5-1.9,5-4.1c1.4-2.2,2.2-5.7,2.3-10.5c0-4.3-0.7-7.6-2.1-9.8c-1.4-2.2-3-3.6-4.8-4.2c-1.8-0.6-3.6-0.6-5.4-0.1
			C815.2,592.3,813.9,593,813,593.8z"/>
		<path fill="#414042" d="M868.8,630H856l-16.8-48.1h13.4l9.6,33.8l8.5-29.5c1-2.9,2.9-4.3,5.8-4.3h9.4L868.8,630z"/>
		<path fill="#414042" d="M921.4,615.1h9c-1.3,5.1-3.9,8.9-7.6,11.6c-3.7,2.8-8.4,4.2-14.1,4.2c-6.9,0-12.2-2.2-16.1-6.7
			c-3.9-4.3-5.8-10.5-5.8-18.6c0-7.7,1.9-13.7,5.6-18.1c3.9-4.5,9.2-6.7,16.1-6.7c7.2,0,12.8,2.2,16.8,6.5
			c3.9,4.5,5.8,10.7,5.8,18.6c0,0.5,0,0.9,0,1.3s0,0.6,0,0.7c0,0.6-0.1,1-0.2,1.3h-31.3c0.1,3.7,1,6.5,2.7,8.3
			c1.6,1.9,3.9,2.9,7.1,2.9c2,0,3.8-0.4,5.2-1.3c0.4-0.1,0.7-0.3,1-0.6c0.3-0.3,0.6-0.6,1-1c0.1-0.4,0.6-0.8,1.4-1.4
			C918.9,615.5,920,615.1,921.4,615.1z M899.7,601h18.4c-0.2-3.3-1.1-5.7-2.5-7.2c-1.6-1.7-3.8-2.5-6.7-2.5c-2.7,0-4.8,0.8-6.5,2.5
			C900.8,595.5,899.9,597.9,899.7,601z"/>
		<path fill="#414042" d="M934.7,630v-23.3c0-4.7,0.7-8.6,2.1-11.8c1.4-3.2,3.3-5.8,5.7-7.7c2.3-1.8,5-3.1,8-4
			c3.1-0.8,6.2-1.3,9.5-1.3c0.2,0,0.5,0,0.9,0c0.4,0,0.7,0,0.9,0v12.8h-4.2c-3.5,0-6.1,0.8-7.8,2.5c-1.7,1.7-2.5,4.3-2.5,8V630
			H934.7z"/>
		<path fill="#414042" d="M966,630v-55.7c0-1.8,0.6-3.3,1.9-4.6s2.8-1.9,4.6-1.9h22.8c6.4,0,11.3,1.3,14.6,4
			c3.4,2.9,5.1,6.8,5.1,11.8c0,3.1-0.7,5.8-2,8c-1.3,2.1-3.2,3.7-5.6,4.9c3.1,1.3,5.5,3.2,7.2,5.6c1.6,2.3,2.4,5.3,2.4,9
			c0,6-1.9,10.7-5.8,14.1c-4,3.3-9.6,4.9-16.8,4.9H966z M978.3,591.8h14.6c3.1,0,5.4-0.5,6.9-1.6c1.4-1.1,2.2-2.8,2.2-5.1
			c0-2.3-0.7-4-2.2-5.1c-1.2-1-3.6-1.4-7.1-1.4h-14.5V591.8z M978.3,618.8h15.2c3.4,0,6-0.7,7.8-2c1.7-1.2,2.5-3.3,2.5-6.1
			c0-2.9-0.8-5-2.5-6.3c-1.6-1.2-4.2-1.8-8-1.8h-15V618.8z"/>
		<path fill="#414042" d="M1062.9,630h-6.3c-1.8,0-3.3-0.6-4.4-1.7c-1.1-1.1-1.7-2.6-1.7-4.4v-24.6c0-2.9-0.9-5-2.6-6.3
			c-1.7-1.3-3.7-2-5.9-2c-2.2,0-4.1,0.7-5.8,2c-1.7,1.3-2.5,3.4-2.5,6.3V630H1021v-28.2c0-8.2,2.1-13.7,6.4-16.5
			c4.3-2.8,9-4.3,14.2-4.5c5.3,0,10.2,1.4,14.6,4.2c4.5,2.8,6.7,8.4,6.7,16.8V630z"/>
		<path fill="#414042" d="M1067.9,630v-55.7c0-1.8,0.6-3.3,1.9-4.6c1.3-1.3,2.8-1.9,4.6-1.9h22.8c6.4,0,11.3,1.3,14.6,4
			c3.4,2.9,5.1,6.8,5.1,11.8c0,3.1-0.7,5.8-2,8c-1.3,2.1-3.2,3.7-5.6,4.9c3.1,1.3,5.5,3.2,7.2,5.6c1.6,2.3,2.4,5.3,2.4,9
			c0,6-1.9,10.7-5.8,14.1c-4,3.3-9.6,4.9-16.8,4.9H1067.9z M1080.2,591.8h14.6c3.1,0,5.4-0.5,6.9-1.6c1.4-1.1,2.2-2.8,2.2-5.1
			c0-2.3-0.7-4-2.2-5.1c-1.2-1-3.6-1.4-7.1-1.4h-14.5V591.8z M1080.2,618.8h15.2c3.4,0,6-0.7,7.8-2c1.7-1.2,2.5-3.3,2.5-6.1
			c0-2.9-0.8-5-2.5-6.3c-1.6-1.2-4.2-1.8-8-1.8h-15V618.8z"/>
	</g>
</g>
<linearGradient id="SVGID_18_" gradientUnits="userSpaceOnUse" x1="625.3366" y1="655.4355" x2="494.0866" y2="598.9355">
	<stop  offset="0" style="stop-color:#5A74C5"/>
	<stop  offset="0.3943" style="stop-color:#3577B5;stop-opacity:0.6057"/>
	<stop  offset="1" style="stop-color:#007C9D;stop-opacity:0"/>
</linearGradient>
<path fill="url(#SVGID_18_)" d="M579,610.6c-0.7-6.9-3.1-13.6-6.9-19.5c-2.8-4.3-6.4-8.3-10.7-11.6c6,4.7,9.8,12,9.8,20.2
	c0,2.3-0.3,4.5-0.9,6.6c-0.2,0.9-0.5,1.7-0.8,2.6c-1.8,5-4.4,9.5-7.6,13.4c-4.5,5.4-10.1,9.7-16.4,12.5c-8.5,3.8-18.1,5-27.7,3
	c-1.6-0.3-3.1-0.7-4.7-1.2c-10.3-3.4-18.6-10.1-24-18.5c-7-11-9.3-24.8-4.9-38.2c0,0,0,0,0,0c-2,6.3-3.1,12.9-3.1,19.9
	c0,21,10,39.6,25.5,51.3c0.4,0.3,0.7,0.5,1.1,0.8c0,0,0,0,0,0c11.4,8.3,25.3,10.4,37.9,7.1c9.7-2.5,18.7-8.3,25.1-17.1
	c1-1.3,1.8-2.7,2.6-4.1C578.2,629.4,580,619.9,579,610.6z M489.4,620.5C489.4,620.4,489.4,620.4,489.4,620.5
	C489.4,620.4,489.4,620.4,489.4,620.5z M494.2,636.4c0-0.1-0.1-0.2-0.1-0.3C494.2,636.2,494.2,636.3,494.2,636.4z M493.2,634.2
	c0-0.1-0.1-0.2-0.1-0.3C493.1,634,493.2,634.1,493.2,634.2z M492.3,632c0-0.1-0.1-0.2-0.1-0.3C492.2,631.8,492.2,631.9,492.3,632z
	 M491.5,629.8c0-0.1-0.1-0.2-0.1-0.3C491.4,629.6,491.4,629.7,491.5,629.8z M490.8,627.5c0-0.1,0-0.2-0.1-0.2
	C490.7,627.3,490.7,627.4,490.8,627.5z M490.2,625.2c0-0.1,0-0.1,0-0.2C490.2,625,490.2,625.1,490.2,625.2z M489.7,622.8
	c0-0.1,0-0.1,0-0.2C489.7,622.7,489.7,622.8,489.7,622.8z M495.3,638.2c0,0.1,0.1,0.2,0.1,0.2C495.4,638.4,495.3,638.3,495.3,638.2z
	 M496.5,640.3c0,0.1,0.1,0.1,0.1,0.2C496.6,640.4,496.6,640.3,496.5,640.3z M497.9,642.3c0,0.1,0.1,0.1,0.1,0.2
	C498,642.4,498,642.3,497.9,642.3z M499.4,644.2c0,0.1,0.1,0.1,0.1,0.2C499.5,644.3,499.5,644.2,499.4,644.2z M501.1,646
	c0,0,0.1,0.1,0.1,0.1C501.1,646.1,501.1,646.1,501.1,646z M502.8,647.8C502.8,647.8,502.9,647.9,502.8,647.8
	C502.9,647.9,502.8,647.8,502.8,647.8z"/>
</svg>
