<?xml version="1.0" encoding="utf-8"?>
<!-- Generator: Adobe Illustrator 16.0.0, SVG Export Plug-In . SVG Version: 6.00 Build 0)  -->
<!DOCTYPE svg PUBLIC "-//W3C//DTD SVG 1.1//EN" "http://www.w3.org/Graphics/SVG/1.1/DTD/svg11.dtd">
<svg version="1.1" id="Layer_1" xmlns="http://www.w3.org/2000/svg" xmlns:xlink="http://www.w3.org/1999/xlink" x="0px" y="0px"
	 width="864px" height="864px" viewBox="0 0 864 864" enable-background="new 0 0 864 864" xml:space="preserve">
<g>
	<g>
		<g>
			<g>
				
					<linearGradient id="SVGID_1_" gradientUnits="userSpaceOnUse" x1="-91.6323" y1="243.5781" x2="-92.1202" y2="243.196" gradientTransform="matrix(0.54 0 0 -0.54 126.23 611.33)">
					<stop  offset="0" style="stop-color:#92E5F7"/>
					<stop  offset="0.6144" style="stop-color:#3689B7"/>
					<stop  offset="1" style="stop-color:#005392"/>
				</linearGradient>
				<path fill="url(#SVGID_1_)" d="M75.986,479.393c0.48,0.359,0.842,0.604,1.324,0.965
					C76.828,480.115,76.467,479.752,75.986,479.393z"/>
				
					<linearGradient id="SVGID_2_" gradientUnits="userSpaceOnUse" x1="-90.5918" y1="242.541" x2="-90.5918" y2="242.541" gradientTransform="matrix(0.54 0 0 -0.54 126.23 611.33)">
					<stop  offset="0" style="stop-color:#92E5F7"/>
					<stop  offset="0.6144" style="stop-color:#3689B7"/>
					<stop  offset="1" style="stop-color:#005392"/>
				</linearGradient>
				<path fill="url(#SVGID_2_)" d="M77.31,480.357L77.31,480.357L77.31,480.357z"/>
				
					<linearGradient id="SVGID_3_" gradientUnits="userSpaceOnUse" x1="-59.9541" y1="341.4658" x2="-61.2359" y2="340.4609" gradientTransform="matrix(0.54 0 0 -0.54 126.23 611.33)">
					<stop  offset="0" style="stop-color:#92E5F7"/>
					<stop  offset="0.6144" style="stop-color:#3689B7"/>
					<stop  offset="1" style="stop-color:#005392"/>
				</linearGradient>
				<path fill="url(#SVGID_3_)" d="M93.071,425.612c0.24,1.082,0.602,2.045,0.962,3.128c-0.121-0.483-0.361-0.964-0.482-1.445
					C93.312,426.694,93.192,426.092,93.071,425.612z"/>
				
					<linearGradient id="SVGID_4_" gradientUnits="userSpaceOnUse" x1="-40.2637" y1="404.626" x2="-41.4401" y2="403.704" gradientTransform="matrix(0.54 0 0 -0.54 126.23 611.33)">
					<stop  offset="0" style="stop-color:#92E5F7"/>
					<stop  offset="0.6144" style="stop-color:#3689B7"/>
					<stop  offset="1" style="stop-color:#005392"/>
				</linearGradient>
				<path fill="url(#SVGID_4_)" d="M103.78,393.366c0.24-0.241,0.48-0.362,0.842-0.603
					C104.381,392.883,104.141,393.125,103.78,393.366z"/>
				
					<linearGradient id="SVGID_5_" gradientUnits="userSpaceOnUse" x1="-37.8628" y1="406.2188" x2="-39.1389" y2="405.2184" gradientTransform="matrix(0.54 0 0 -0.54 126.23 611.33)">
					<stop  offset="0" style="stop-color:#92E5F7"/>
					<stop  offset="0.6144" style="stop-color:#3689B7"/>
					<stop  offset="1" style="stop-color:#005392"/>
				</linearGradient>
				<path fill="url(#SVGID_5_)" d="M104.983,392.524c0.361-0.241,0.602-0.36,0.962-0.602
					C105.584,392.041,105.344,392.283,104.983,392.524z"/>
				
					<linearGradient id="SVGID_6_" gradientUnits="userSpaceOnUse" x1="26.2534" y1="406.0474" x2="25.8717" y2="405.7486" gradientTransform="matrix(0.54 0 0 -0.54 126.23 611.33)">
					<stop  offset="0" style="stop-color:#92E5F7"/>
					<stop  offset="0.6144" style="stop-color:#3689B7"/>
					<stop  offset="1" style="stop-color:#005392"/>
				</linearGradient>
				<path fill="url(#SVGID_6_)" d="M139.875,391.802c0.361,0.239,0.602,0.362,0.963,0.601
					C140.476,392.283,140.236,392.041,139.875,391.802z"/>
				
					<linearGradient id="SVGID_7_" gradientUnits="userSpaceOnUse" x1="28.5845" y1="404.2612" x2="28.2904" y2="404.0307" gradientTransform="matrix(0.54 0 0 -0.54 126.23 611.33)">
					<stop  offset="0" style="stop-color:#92E5F7"/>
					<stop  offset="0.6144" style="stop-color:#3689B7"/>
					<stop  offset="1" style="stop-color:#005392"/>
				</linearGradient>
				<path fill="url(#SVGID_7_)" d="M141.199,392.763c0.241,0.241,0.481,0.362,0.842,0.603
					C141.68,393.125,141.439,392.883,141.199,392.763z"/>
				
					<linearGradient id="SVGID_8_" gradientUnits="userSpaceOnUse" x1="49.3901" y1="342.1714" x2="46.296" y2="339.7466" gradientTransform="matrix(0.54 0 0 -0.54 126.23 611.33)">
					<stop  offset="0" style="stop-color:#92E5F7"/>
					<stop  offset="0.6144" style="stop-color:#3689B7"/>
					<stop  offset="1" style="stop-color:#005392"/>
				</linearGradient>
				<path fill="url(#SVGID_8_)" d="M151.786,428.618c0.362-0.961,0.723-2.045,0.962-3.127c-0.12,0.481-0.239,1.082-0.481,1.565
					C152.148,427.657,151.907,428.137,151.786,428.618z"/>
				
					<linearGradient id="SVGID_9_" gradientUnits="userSpaceOnUse" x1="-7.0728" y1="302.0005" x2="-8.4868" y2="300.8925" gradientTransform="matrix(0.54 0 0 -0.54 126.23 611.33)">
					<stop  offset="0" style="stop-color:#92E5F7"/>
					<stop  offset="0.6144" style="stop-color:#3689B7"/>
					<stop  offset="1" style="stop-color:#005392"/>
				</linearGradient>
				<path fill="url(#SVGID_9_)" d="M122.91,448.471c-0.481,0-1.083,0-1.564,0C121.828,448.471,122.309,448.471,122.91,448.471z"/>
				
					<linearGradient id="SVGID_10_" gradientUnits="userSpaceOnUse" x1="-4.125" y1="302.0391" x2="-5.5957" y2="300.8863" gradientTransform="matrix(0.54 0 0 -0.54 126.23 611.33)">
					<stop  offset="0" style="stop-color:#92E5F7"/>
					<stop  offset="0.6144" style="stop-color:#3689B7"/>
					<stop  offset="1" style="stop-color:#005392"/>
				</linearGradient>
				<path fill="url(#SVGID_10_)" d="M124.475,448.471c-0.482,0-1.084,0-1.565,0C123.391,448.471,123.993,448.471,124.475,448.471z"
					/>
				<path fill="#3CA0A0" d="M124.956,340.065c-0.722,0-1.323,0-2.045,0c-16.844,0-32.005,7.698-41.992,19.851
					c-7.7,9.385-12.271,21.298-12.271,34.412c0,1.926,0.121,3.849,0.361,5.775c1.203,11.671,6.255,22.259,13.716,30.561
					c5.534,6.135,12.633,11.071,20.455,14.079c5.655,2.164,11.791,3.49,18.167,3.729c-12.513-0.6-22.98-8.662-27.312-19.853
					c-0.361-0.961-0.722-2.045-0.962-3.127c-1.805-6.135-2.406-12.273-2.045-18.288c0.481-8.423,3.008-16.604,7.099-23.823
					c5.534-9.627,14.077-17.686,24.786-22.5c1.805-0.842,3.61-1.444,5.414-2.045c12.393-4.09,25.267-3.37,36.457,1.082
					c14.559,5.655,26.59,17.688,31.884,33.689c0,0.123,0.122,0.242,0.122,0.362l0,0
					C186.919,363.287,158.645,341.027,124.956,340.065z"/>
				
					<linearGradient id="SVGID_11_" gradientUnits="userSpaceOnUse" x1="-20.562" y1="425.0938" x2="138.8743" y2="310.1848" gradientTransform="matrix(0.54 0 0 -0.54 126.23 611.33)">
					<stop  offset="0" style="stop-color:#5ABFC5"/>
					<stop  offset="0.3943" style="stop-color:#35C1B5"/>
					<stop  offset="1" style="stop-color:#00C49D"/>
				</linearGradient>
				<path fill="url(#SVGID_11_)" d="M196.787,393.967L196.787,393.967L196.787,393.967c0-0.12-0.122-0.239-0.122-0.239
					c-5.172-16.124-17.205-28.035-31.884-33.69c-11.31-4.452-24.063-5.055-36.456-1.084c-1.926,0.601-3.73,1.323-5.415,2.046
					c-10.708,4.813-19.251,12.752-24.786,22.499c-4.091,7.219-6.618,15.4-7.099,23.824c-0.361,6.016,0.361,12.271,2.045,18.289
					c-0.722-2.527-1.083-5.175-1.083-7.942c0-9.866,4.572-18.648,11.792-24.303c0.24-0.241,0.48-0.362,0.842-0.603
					c0,0,0.119,0,0.119-0.119c0.121-0.12,0.121-0.12,0.242-0.241c0.361-0.239,0.602-0.481,0.962-0.601
					c5.294-3.61,11.07-6.258,16.965-7.82c8.181-2.167,16.724-2.287,24.786-0.603c10.949,2.287,21.176,7.942,29.118,16.724
					c1.323,1.444,2.526,2.888,3.729,4.571c7.7,10.59,10.949,22.982,10.226,35.015c0.24-0.361,0.481-0.842,0.723-1.203
					c-0.242,0.361-0.483,0.842-0.723,1.203c-0.842,15.158-8.062,29.838-20.936,39.703c18.649-14.199,30.683-36.576,30.683-61.723
					C200.516,409.368,199.193,401.426,196.787,393.967z"/>
				
					<linearGradient id="SVGID_12_" gradientUnits="userSpaceOnUse" x1="-88.9873" y1="241.7515" x2="-89.6054" y2="241.2669" gradientTransform="matrix(0.54 0 0 -0.54 126.23 611.33)">
					<stop  offset="0" style="stop-color:#92E5F7"/>
					<stop  offset="0.6144" style="stop-color:#3689B7"/>
					<stop  offset="1" style="stop-color:#005392"/>
				</linearGradient>
				<path fill="url(#SVGID_12_)" d="M78.754,481.438c-0.482-0.361-0.963-0.721-1.444-1.08
					C77.791,480.717,78.272,481.076,78.754,481.438z"/>
				<path fill="#3CA0A0" d="M180.543,404.674c-1.204-1.562-2.406-3.127-3.729-4.571c-7.942-8.782-18.169-14.437-29.118-16.724
					c-8.181-1.685-16.604-1.565-24.786,0.603c-5.896,1.562-11.671,4.09-16.965,7.82c4.813-3.248,10.709-5.054,16.965-5.054
					c6.257,0,12.152,1.925,16.964,5.054c0.361,0.239,0.602,0.362,0.963,0.601c0.12,0.121,0.12,0.121,0.24,0.241
					c0,0,0.121,0,0.121,0.119c0.241,0.241,0.602,0.362,0.842,0.603c5.175,3.969,9.504,8.662,12.875,13.957
					c4.571,7.097,7.339,15.159,8.301,23.463c1.203,11.07-0.962,22.619-6.858,32.845c-0.962,1.686-2.045,3.248-3.127,4.936
					c-7.702,10.586-18.409,17.564-30.2,20.572c-14.559,3.852-30.682,1.564-44.037-7.58c12.513,8.664,27.673,13.717,44.037,13.717
					c16.363,0,31.523-5.053,44.037-13.717c0.48-0.359,0.961-0.721,1.442-1.082l0,0c13.717-9.988,21.298-25.027,22.259-40.668
					C191.493,427.657,188.122,415.142,180.543,404.674z"/>
				
					<linearGradient id="SVGID_13_" gradientUnits="userSpaceOnUse" x1="-39.4668" y1="405.2803" x2="-39.9958" y2="404.8656" gradientTransform="matrix(0.54 0 0 -0.54 126.23 611.33)">
					<stop  offset="0" style="stop-color:#92E5F7"/>
					<stop  offset="0.6144" style="stop-color:#3689B7"/>
					<stop  offset="1" style="stop-color:#005392"/>
				</linearGradient>
				<path fill="url(#SVGID_13_)" d="M104.741,392.644C104.741,392.644,104.622,392.644,104.741,392.644c0,0,0.121-0.12,0.242-0.241
					C104.862,392.524,104.862,392.524,104.741,392.644z"/>
				
					<linearGradient id="SVGID_14_" gradientUnits="userSpaceOnUse" x1="-149.8608" y1="313.6333" x2="68.8652" y2="313.6333" gradientTransform="matrix(0.54 0 0 -0.54 126.23 611.33)">
					<stop  offset="0" style="stop-color:#5ABFC5"/>
					<stop  offset="0.3943" style="stop-color:#35C1B5"/>
					<stop  offset="1" style="stop-color:#00C49D"/>
				</linearGradient>
				<path fill="url(#SVGID_14_)" d="M163.097,430.664c-0.842-8.302-3.729-16.362-8.303-23.461
					c-3.368-5.174-7.699-9.987-12.874-13.958c7.219,5.654,11.792,14.438,11.792,24.304c0,2.768-0.361,5.413-1.083,7.941
					c-0.242,1.082-0.601,2.046-0.962,3.127c-2.167,6.017-5.295,11.431-9.146,16.125c-5.414,6.496-12.151,11.672-19.732,15.039
					c-10.227,4.57-21.777,6.016-33.328,3.609c-1.925-0.361-3.729-0.842-5.655-1.445c-12.393-4.09-22.379-12.152-28.876-22.256
					c-8.421-13.237-11.189-29.841-5.896-45.961l0,0c-2.406,7.578-3.729,15.52-3.729,23.941c0,25.268,12.031,47.647,30.682,61.723
					c0.48,0.359,0.842,0.604,1.322,0.965l0,0c13.717,9.984,30.441,12.51,45.602,8.543c11.67-3.01,22.5-9.988,30.199-20.576
					c1.204-1.564,2.167-3.248,3.129-4.934C162.133,453.285,164.3,441.855,163.097,430.664z M55.291,442.576
					C55.291,442.455,55.291,442.455,55.291,442.576C55.291,442.455,55.291,442.455,55.291,442.576z M61.066,461.705
					c0-0.121-0.121-0.24-0.121-0.359C61.066,461.465,61.066,461.584,61.066,461.705z M59.864,459.061
					c0-0.123-0.121-0.24-0.121-0.363C59.743,458.82,59.864,458.938,59.864,459.061z M58.78,456.414c0-0.121-0.12-0.244-0.12-0.361
					C58.66,456.17,58.66,456.293,58.78,456.414z M57.818,453.766c0-0.119-0.121-0.24-0.121-0.361
					C57.698,453.525,57.698,453.646,57.818,453.766z M56.976,450.998c0-0.121,0-0.24-0.121-0.24
					C56.855,450.758,56.855,450.877,56.976,450.998z M56.254,448.232c0-0.123,0-0.123,0-0.242
					C56.254,447.99,56.254,448.109,56.254,448.232z M55.652,445.344c0-0.121,0-0.121,0-0.24
					C55.652,445.223,55.652,445.344,55.652,445.344z M62.39,463.871c0,0.121,0.121,0.242,0.121,0.242S62.39,463.992,62.39,463.871z
					 M63.833,466.398c0,0.121,0.121,0.121,0.121,0.24C63.954,466.52,63.954,466.398,63.833,466.398z M65.519,468.805
					c0,0.121,0.12,0.121,0.12,0.242C65.639,468.926,65.639,468.805,65.519,468.805z M67.323,471.092c0,0.119,0.121,0.119,0.121,0.24
					C67.443,471.211,67.443,471.092,67.323,471.092z M69.368,473.256l0.121,0.119C69.368,473.375,69.368,473.375,69.368,473.256z
					 M71.413,475.424C71.413,475.424,71.534,475.543,71.413,475.424C71.534,475.543,71.413,475.424,71.413,475.424z"/>
				
					<linearGradient id="SVGID_15_" gradientUnits="userSpaceOnUse" x1="27.2939" y1="405.2104" x2="27.1428" y2="405.0922" gradientTransform="matrix(0.54 0 0 -0.54 126.23 611.33)">
					<stop  offset="0" style="stop-color:#92E5F7"/>
					<stop  offset="0.6144" style="stop-color:#3689B7"/>
					<stop  offset="1" style="stop-color:#005392"/>
				</linearGradient>
				<path fill="url(#SVGID_15_)" d="M141.078,392.644c-0.12-0.12-0.12-0.12-0.24-0.241
					C140.958,392.524,141.078,392.644,141.078,392.644L141.078,392.644z"/>
				<g>
					
						<linearGradient id="SVGID_16_" gradientUnits="userSpaceOnUse" x1="8.478" y1="320.6157" x2="-160.8597" y2="514.463" gradientTransform="matrix(0.54 0 0 -0.54 126.23 611.33)">
						<stop  offset="0" style="stop-color:#8DC63F"/>
						<stop  offset="0.6015" style="stop-color:#36A742"/>
						<stop  offset="1" style="stop-color:#009444"/>
					</linearGradient>
					<path fill="url(#SVGID_16_)" d="M49.034,393.728c9.866-30.563,38.142-52.82,71.831-53.663c0.721,0,1.322,0,2.045,0
						c-0.723,0-1.323,0-2.045,0c-16.124,0.601-30.32,8.181-39.947,19.851c-7.7,9.385-12.271,21.298-12.271,34.412
						c0,1.926,0.121,3.852,0.361,5.775c1.203,11.671,6.257,22.259,13.716,30.561c5.534,6.137,12.633,11.071,20.455,14.079
						c5.655,2.164,11.791,3.49,18.167,3.729c0.482,0,1.083,0,1.564,0s1.083,0,1.565,0c12.513-0.6,22.98-8.662,27.311-19.853
						c-2.165,6.017-5.293,11.431-9.144,16.125c-5.415,6.496-12.152,11.672-19.732,15.039c-10.227,4.57-21.777,6.016-33.328,3.609
						c-1.926-0.361-3.729-0.842-5.655-1.445c-12.393-4.09-22.379-12.15-28.876-22.256C46.629,426.453,43.861,409.849,49.034,393.728
						C49.155,393.728,49.155,393.728,49.034,393.728z"/>
					
						<linearGradient id="SVGID_17_" gradientUnits="userSpaceOnUse" x1="7.3774" y1="319.6504" x2="-161.9595" y2="513.4966" gradientTransform="matrix(0.54 0 0 -0.54 126.23 611.33)">
						<stop  offset="0" style="stop-color:#5ABFC5"/>
						<stop  offset="0.3943" style="stop-color:#35C1B5"/>
						<stop  offset="1" style="stop-color:#00C49D"/>
					</linearGradient>
					<path fill="url(#SVGID_17_)" d="M55.05,439.689c6.498,10.225,16.484,18.287,28.876,22.256c1.926,0.604,3.729,1.084,5.655,1.445
						c11.551,2.406,23.102,0.961,33.328-3.609c7.58-3.367,14.318-8.543,19.732-15.039c3.851-4.693,6.979-10.107,9.144-16.125
						c-4.211,11.191-14.798,19.132-27.311,19.853c-0.482,0-1.084,0-1.565,0s-1.083,0-1.564,0
						c-6.376-0.238-12.513-1.441-18.167-3.729c-7.941-3.129-14.919-7.941-20.455-14.079c-7.459-8.302-12.513-18.89-13.716-30.561
						c-0.24-1.926-0.361-3.849-0.361-5.775c0-12.994,4.572-25.027,12.271-34.412c9.505-11.669,23.824-19.25,39.947-19.851
						c-33.569,0.842-61.965,23.1-71.831,53.663l0,0C43.861,409.849,46.629,426.453,55.05,439.689z"/>
				</g>
			</g>
		</g>
		<g>
			<path fill="#414042" d="M239.86,454.006v-61.603h-22.14v-5.414c0-2.165,0.722-3.971,2.287-5.535
				c1.565-1.565,3.369-2.285,5.533-2.285h51.74v13.234h-22.019v61.603H239.86z"/>
			<path fill="#414042" d="M330.58,396.131v33.931c0,10.346-2.647,17.084-8.061,20.215c-5.414,3.248-11.191,4.811-17.566,4.811
				c-6.258-0.24-11.911-2.047-17.086-5.174c-5.173-3.248-7.7-9.744-7.7-19.852v-33.931h15.279v36.939c0,3.49,0.964,6.016,3.009,7.58
				c2.045,1.564,4.331,2.406,6.978,2.406c2.648,0,4.933-0.842,7.099-2.406c2.046-1.564,3.128-4.09,3.128-7.58v-29.599
				c0-2.045,0.723-3.73,2.045-5.172c1.323-1.444,3.129-2.168,5.294-2.168H330.58z"/>
			<path fill="#414042" d="M334.671,454.006v-28.034c0-5.655,0.841-10.348,2.526-14.198c1.684-3.852,3.971-6.979,6.858-9.265
				c2.767-2.164,6.017-3.729,9.626-4.813c3.729-0.961,7.458-1.564,11.429-1.564c0.239,0,0.601,0,1.084,0c0.48,0,0.84,0,1.082,0
				v15.401h-5.054c-4.212,0-7.338,0.965-9.384,3.01s-3.009,5.172-3.009,9.623v29.84H334.671z"/>
			<path fill="#414042" d="M421.059,454.006h-7.579c-2.164,0-3.971-0.721-5.294-2.045c-1.322-1.322-2.045-3.129-2.045-5.295v-29.598
				c0-3.49-1.084-6.017-3.129-7.582c-2.046-1.564-4.452-2.406-7.099-2.406c-2.647,0-4.935,0.841-6.979,2.406
				c-2.045,1.565-3.008,4.092-3.008,7.582v36.938h-15.28v-33.931c0-9.865,2.528-16.482,7.7-19.851
				c5.175-3.37,10.83-5.175,17.084-5.416c6.379,0,12.275,1.685,17.569,5.055c5.413,3.369,8.06,10.105,8.06,20.211V454.006z"/>
			<path fill="#414042" d="M434.175,448.713c-3.009-2.648-5.175-6.137-6.497-10.588c-1.323-4.453-1.926-9.024-1.926-13.836
				c0-3.972,0.603-7.823,1.684-11.792c1.084-3.971,2.768-7.22,5.055-9.747c3.73-4.332,8.663-6.977,14.559-7.701
				c5.896-0.841,11.309-0.36,16.123,1.443c5.535,2.167,9.625,5.896,12.152,11.31c2.406,4.813,3.73,10.349,3.73,16.725
				c0,4.693-0.482,8.664-1.566,11.912c-0.961,3.369-2.285,6.137-3.969,8.543c-3.49,4.812-7.941,7.82-13.236,8.904
				c-4.812,1.322-9.625,1.441-14.438,0.359C441.033,453.166,437.182,451.359,434.175,448.713z M444.641,410.452
				c-3.007,3.367-4.451,8.3-4.091,14.917c0.241,6.619,1.564,11.191,3.732,13.835c0.843,1.203,2.403,2.166,4.571,2.891
				c2.164,0.842,4.33,0.842,6.617,0.24s4.211-2.287,6.018-4.934c1.684-2.646,2.645-6.858,2.768-12.633
				c0-5.175-0.844-9.145-2.529-11.791c-1.686-2.648-3.607-4.332-5.775-5.056c-2.164-0.72-4.33-0.72-6.496-0.119
				C447.289,408.646,445.725,409.487,444.641,410.452z"/>
			<path fill="#414042" d="M511.781,454.006h-15.402l-20.213-57.875h16.123l11.549,40.669l10.229-35.495
				c1.203-3.487,3.49-5.175,6.977-5.175h11.311L511.781,454.006z"/>
			<path fill="#414042" d="M575.068,436.08h10.828c-1.564,6.135-4.693,10.705-9.143,13.957c-4.453,3.367-10.107,5.051-16.967,5.051
				c-8.303,0-14.678-2.646-19.371-8.059c-4.691-5.174-6.979-12.635-6.979-22.38c0-9.265,2.287-16.484,6.738-21.778
				c4.691-5.414,11.07-8.062,19.371-8.062c8.664,0,15.4,2.648,20.213,7.82c4.691,5.416,6.979,12.875,6.979,22.379
				c0,0.604,0,1.084,0,1.564s0,0.722,0,0.842c0,0.723-0.121,1.203-0.242,1.565h-37.658c0.121,4.45,1.205,7.819,3.25,9.987
				c1.922,2.283,4.691,3.488,8.543,3.488c2.406,0,4.57-0.48,6.254-1.564c0.48-0.121,0.844-0.359,1.205-0.721
				c0.359-0.361,0.721-0.723,1.203-1.203c0.119-0.48,0.721-0.963,1.684-1.686C572.061,436.561,573.383,436.08,575.068,436.08z
				 M548.959,419.114h22.139c-0.24-3.972-1.324-6.858-3.008-8.662c-1.924-2.046-4.572-3.01-8.062-3.01
				c-3.248,0-5.775,0.964-7.82,3.01C550.281,412.497,549.199,415.384,548.959,419.114z"/>
			<path fill="#414042" d="M591.07,454.006v-28.034c0-5.655,0.842-10.348,2.525-14.198c1.686-3.852,3.973-6.979,6.859-9.265
				c2.768-2.164,6.016-3.729,9.623-4.813c3.732-0.961,7.461-1.564,11.434-1.564c0.238,0,0.602,0,1.082,0s0.842,0,1.082,0v15.401
				h-5.055c-4.209,0-7.336,0.965-9.383,3.01s-3.008,5.172-3.008,9.623v29.84H591.07z"/>
			<path fill="#414042" d="M628.729,454.006v-67.017c0-2.165,0.723-3.971,2.287-5.535c1.564-1.565,3.369-2.285,5.535-2.285h27.432
				c7.701,0,13.598,1.564,17.566,4.813c4.092,3.488,6.137,8.182,6.137,14.195c0,3.732-0.844,6.98-2.408,9.626
				c-1.561,2.526-3.848,4.453-6.736,5.897c3.73,1.564,6.617,3.849,8.664,6.737c1.924,2.768,2.885,6.377,2.885,10.829
				c0,7.22-2.283,12.876-6.977,16.966c-4.812,3.967-11.551,5.895-20.215,5.895h-34.17V454.006z M643.529,408.045h17.566
				c3.73,0,6.498-0.603,8.301-1.926c1.686-1.323,2.648-3.368,2.648-6.136s-0.842-4.813-2.648-6.136
				c-1.443-1.203-4.33-1.684-8.543-1.684H643.41v15.881H643.529z M643.529,440.531h18.289c4.09,0,7.219-0.842,9.385-2.406
				c2.045-1.445,3.006-3.973,3.006-7.339c0-3.491-0.961-6.017-3.006-7.581c-1.928-1.442-5.055-2.166-9.627-2.166h-18.047V440.531z"
				/>
			<path fill="#414042" d="M745.318,454.006h-7.58c-2.166,0-3.969-0.721-5.295-2.045c-1.324-1.322-2.045-3.129-2.045-5.295v-29.598
				c0-3.49-1.082-6.017-3.127-7.582c-2.045-1.564-4.453-2.406-7.1-2.406s-4.934,0.841-6.979,2.406
				c-2.045,1.565-3.008,4.092-3.008,7.582v36.938h-15.281v-33.931c0-9.865,2.527-16.482,7.701-19.851
				c5.174-3.37,10.83-5.175,17.084-5.416c6.379,0,12.273,1.685,17.566,5.055c5.416,3.369,8.062,10.105,8.062,20.211V454.006
				L745.318,454.006z"/>
			<path fill="#414042" d="M751.334,454.006v-67.017c0-2.165,0.723-3.971,2.287-5.535c1.564-1.565,3.367-2.285,5.533-2.285h27.434
				c7.701,0,13.596,1.564,17.566,4.813c4.09,3.488,6.135,8.182,6.135,14.195c0,3.732-0.84,6.98-2.404,9.626
				c-1.564,2.526-3.85,4.453-6.74,5.897c3.732,1.564,6.619,3.849,8.664,6.737c1.924,2.768,2.889,6.377,2.889,10.829
				c0,7.22-2.287,12.876-6.979,16.966c-4.812,3.967-11.553,5.895-20.213,5.895h-34.172V454.006z M766.133,408.045h17.566
				c3.73,0,6.498-0.603,8.303-1.926c1.684-1.323,2.645-3.368,2.645-6.136s-0.84-4.813-2.645-6.136
				c-1.445-1.203-4.332-1.684-8.543-1.684h-17.447v15.881H766.133z M766.133,440.531h18.289c4.09,0,7.219-0.842,9.385-2.406
				c2.047-1.445,3.008-3.973,3.008-7.339c0-3.491-0.961-6.017-3.008-7.581c-1.924-1.442-5.053-2.166-9.625-2.166h-18.049V440.531z"
				/>
		</g>
	</g>
	
		<linearGradient id="SVGID_18_" gradientUnits="userSpaceOnUse" x1="171.5508" y1="234.7495" x2="-120.8893" y2="360.6379" gradientTransform="matrix(0.54 0 0 -0.54 126.23 611.33)">
		<stop  offset="0" style="stop-color:#5A74C5"/>
		<stop  offset="0.3943" style="stop-color:#3577B5;stop-opacity:0.6057"/>
		<stop  offset="1" style="stop-color:#007C9D;stop-opacity:0"/>
	</linearGradient>
	<path fill="url(#SVGID_18_)" d="M163.097,430.664c-0.842-8.302-3.729-16.362-8.303-23.461c-3.368-5.174-7.699-9.987-12.874-13.958
		c7.219,5.654,11.792,14.438,11.792,24.304c0,2.768-0.361,5.413-1.083,7.941c-0.242,1.082-0.601,2.046-0.962,3.127
		c-2.167,6.017-5.295,11.431-9.146,16.125c-5.414,6.496-12.151,11.672-19.732,15.039c-10.227,4.57-21.777,6.016-33.328,3.609
		c-1.925-0.361-3.729-0.842-5.655-1.445c-12.393-4.09-22.379-12.152-28.876-22.256c-8.421-13.237-11.189-29.841-5.896-45.961l0,0
		c-2.406,7.578-3.729,15.52-3.729,23.941c0,25.268,12.031,47.647,30.682,61.723c0.48,0.359,0.842,0.604,1.322,0.965l0,0
		c13.717,9.984,30.441,12.51,45.602,8.543c11.67-3.01,22.5-9.988,30.199-20.576c1.204-1.564,2.167-3.248,3.129-4.934
		C162.133,453.285,164.3,441.855,163.097,430.664z M55.291,442.576C55.291,442.455,55.291,442.455,55.291,442.576
		C55.291,442.455,55.291,442.455,55.291,442.576z M61.066,461.705c0-0.121-0.121-0.24-0.121-0.359
		C61.066,461.465,61.066,461.584,61.066,461.705z M59.864,459.061c0-0.123-0.121-0.24-0.121-0.363
		C59.743,458.82,59.864,458.938,59.864,459.061z M58.78,456.414c0-0.121-0.12-0.244-0.12-0.361
		C58.66,456.17,58.66,456.293,58.78,456.414z M57.818,453.766c0-0.119-0.121-0.24-0.121-0.361
		C57.698,453.525,57.698,453.646,57.818,453.766z M56.976,450.998c0-0.121,0-0.24-0.121-0.24
		C56.855,450.758,56.855,450.877,56.976,450.998z M56.254,448.232c0-0.123,0-0.123,0-0.242
		C56.254,447.99,56.254,448.109,56.254,448.232z M55.652,445.344c0-0.121,0-0.121,0-0.24
		C55.652,445.223,55.652,445.344,55.652,445.344z M62.39,463.871c0,0.121,0.121,0.242,0.121,0.242S62.39,463.992,62.39,463.871z
		 M63.833,466.398c0,0.121,0.121,0.121,0.121,0.24C63.954,466.52,63.954,466.398,63.833,466.398z M65.519,468.805
		c0,0.121,0.12,0.121,0.12,0.242C65.639,468.926,65.639,468.805,65.519,468.805z M67.323,471.092c0,0.119,0.121,0.119,0.121,0.24
		C67.443,471.211,67.443,471.092,67.323,471.092z M69.368,473.256l0.121,0.119C69.368,473.375,69.368,473.375,69.368,473.256z
		 M71.413,475.424C71.413,475.424,71.534,475.543,71.413,475.424C71.534,475.543,71.413,475.424,71.413,475.424z"/>
</g>
</svg>
