<?xml version="1.0" standalone="no"?>
<!DOCTYPE svg PUBLIC "-//W3C//DTD SVG 20010904//EN"
 "http://www.w3.org/TR/2001/REC-SVG-20010904/DTD/svg10.dtd">
<svg version="1.0" xmlns="http://www.w3.org/2000/svg"
 width="698.000000pt" height="698.000000pt" viewBox="0 0 698.000000 698.000000"
 preserveAspectRatio="xMidYMid meet">
<metadata>
Created by potrace 1.11, written by Peter Selinger 2001-2013
</metadata>
<g transform="translate(0.000000,698.000000) scale(0.100000,-0.100000)"
fill="#000000" stroke="none">
<path d="M3463 6513 c-13 -3 -23 -11 -23 -19 0 -11 -19 -14 -87 -15 -49 -1
-92 -1 -96 0 -5 1 -11 -8 -14 -19 -5 -17 -13 -20 -68 -20 -72 0 -95 -6 -95
-26 0 -9 -12 -14 -36 -14 -27 0 -37 -5 -41 -20 -4 -15 -14 -20 -40 -20 -26 0
-36 -5 -40 -20 -5 -17 -14 -20 -60 -20 -46 0 -56 -3 -60 -19 -3 -11 -13 -21
-24 -24 -10 -3 -19 -12 -19 -20 0 -8 -9 -17 -20 -20 -11 -3 -20 -12 -20 -21 0
-12 -10 -16 -36 -16 -27 0 -37 -5 -41 -19 -3 -11 -13 -21 -24 -24 -10 -3 -19
-12 -19 -20 0 -8 -9 -17 -20 -20 -11 -3 -20 -12 -20 -21 0 -9 -7 -16 -16 -16
-9 0 -18 -9 -21 -20 -3 -11 -12 -20 -20 -20 -8 0 -17 -9 -20 -20 -3 -11 -12
-20 -20 -20 -8 0 -17 -9 -20 -20 -3 -11 -12 -20 -20 -20 -8 0 -17 -9 -20 -19
-3 -11 -13 -21 -24 -24 -14 -4 -19 -14 -19 -40 0 -26 -5 -36 -20 -40 -15 -4
-20 -14 -20 -41 0 -26 -4 -36 -16 -36 -9 0 -18 -9 -21 -19 -3 -11 -13 -21 -24
-24 -14 -4 -19 -14 -19 -41 0 -24 -5 -36 -14 -36 -20 0 -26 -23 -26 -96 0 -48
-3 -64 -14 -64 -18 0 -26 -31 -26 -102 0 -43 -4 -58 -14 -58 -21 0 -24 -16
-25 -166 -1 -115 -4 -141 -18 -151 -20 -15 -22 -61 -23 -505 l0 -338 -280 0
-280 0 0 -40 c0 -27 -4 -40 -14 -40 -22 0 -24 -37 -24 -375 0 -343 2 -385 24
-385 8 0 14 -7 14 -15 0 -8 6 -16 13 -16 6 -1 17 -2 22 -4 6 -1 126 -3 268 -3
l257 -2 0 -750 c0 -735 -1 -751 -20 -768 -11 -9 -20 -22 -20 -28 0 -6 -9 -14
-20 -17 -15 -4 -20 -14 -20 -40 0 -26 -5 -36 -20 -40 -11 -3 -20 -12 -20 -21
0 -12 -10 -16 -34 -16 -22 0 -38 -7 -47 -20 -13 -18 -27 -20 -153 -21 -149 -1
-166 -4 -166 -24 0 -7 -9 -15 -20 -18 -11 -3 -20 -12 -20 -21 0 -9 -6 -16 -14
-16 -22 0 -25 -45 -25 -357 1 -320 4 -363 25 -363 8 0 14 -6 14 -14 0 -11 20
-15 83 -18 45 -2 927 -5 1960 -6 l1877 -3 0 481 0 480 -1080 0 -1080 0 0 800
0 800 480 0 480 0 0 440 0 440 -480 0 -480 0 0 335 c0 308 1 335 18 344 14 8
18 28 20 124 3 103 6 116 23 120 17 4 19 15 19 80 0 66 2 75 20 80 15 4 20 14
20 40 0 26 5 36 20 40 11 3 20 12 20 20 0 8 9 17 20 20 15 4 20 14 20 41 0 35
1 36 36 36 27 0 37 5 41 19 3 11 13 21 24 24 10 3 19 12 19 21 0 13 13 16 76
16 67 0 76 2 81 20 5 17 14 20 64 20 44 0 59 -4 59 -14 0 -21 23 -26 115 -26
74 0 83 -2 88 -20 4 -15 14 -20 41 -20 26 0 36 -4 36 -16 0 -9 9 -18 19 -21
11 -3 21 -13 24 -24 3 -10 12 -19 21 -19 9 0 16 -7 16 -16 0 -9 9 -18 20 -21
11 -3 20 -12 20 -20 0 -8 9 -17 20 -20 17 -5 20 -14 20 -68 0 -72 6 -95 26
-95 9 0 14 -12 14 -36 0 -27 5 -37 20 -41 11 -3 20 -11 20 -18 0 -7 9 -15 21
-18 27 -7 955 -7 992 0 15 3 27 12 27 19 0 8 7 14 15 14 20 0 28 38 23 120 -2
49 -8 73 -20 82 -13 10 -17 35 -20 121 -2 91 -6 110 -20 118 -14 8 -18 23 -18
69 0 67 -7 90 -26 90 -9 0 -14 12 -14 36 0 27 -5 37 -20 41 -15 4 -20 14 -20
40 0 26 -5 36 -20 40 -15 4 -20 14 -20 40 0 26 -5 36 -20 40 -11 3 -20 12 -20
20 0 8 -9 17 -20 20 -15 4 -20 14 -20 40 0 26 -5 36 -20 40 -11 3 -20 12 -20
20 0 8 -9 17 -20 20 -11 3 -20 12 -20 20 0 8 -9 17 -20 20 -11 3 -20 12 -20
20 0 8 -9 17 -20 20 -11 3 -20 12 -20 20 0 8 -9 17 -20 20 -11 3 -20 12 -20
20 0 8 -9 17 -20 20 -11 3 -20 12 -20 20 0 8 -9 17 -19 20 -11 3 -21 13 -24
24 -4 14 -14 19 -40 19 -26 0 -36 5 -40 20 -4 15 -14 20 -40 20 -26 0 -36 5
-40 20 -4 17 -14 20 -60 20 -46 0 -55 3 -60 20 -4 17 -14 20 -61 20 -41 0 -56
4 -56 14 0 21 -23 26 -116 26 -65 0 -84 3 -84 14 0 8 -14 16 -32 19 -38 6
-792 6 -825 0z"/>
</g>
</svg>
