
<svg width="83px" height="60px" viewBox="9 77 83 60" version="1.1" xmlns="http://www.w3.org/2000/svg" xmlns:xlink="http://www.w3.org/1999/xlink">
    <defs></defs>
    <g id="pipes-footer" stroke="none" stroke-width="1" fill="none" fill-rule="evenodd" transform="translate(10.000000, 77.000000)">
        <g id="blue" transform="translate(0.250774, 0.000000)" fill="#4951FF">
            <rect id="Rectangle-3" x="0" y="0" width="25.3281734" height="2.27896996"></rect>
            <rect id="Rectangle-3-Copy-2" x="37.3653251" y="7.59656652" width="15.5479876" height="2.27896996"></rect>
            <rect id="Rectangle-3-Copy-3" x="52.9133127" y="7.59656652" width="27.3343653" height="2.27896996"></rect>
            <rect id="Rectangle-3-Copy" transform="translate(31.346749, 4.937768) rotate(-330.000000) translate(-31.346749, -4.937768) " x="23.5727554" y="3.79828326" width="15.5479876" height="2.27896996"></rect>
        </g>
        <g id="gold" transform="translate(40.249226, 10.002146) scale(-1, 1) rotate(-360.000000) translate(-40.249226, -10.002146) translate(0.000000, 5.064378)" fill="#FFCD9B">
            <rect id="Rectangle-3" x="0" y="9.76996262e-15" width="42.8823529" height="2.27896996"></rect>
            <rect id="Rectangle-3-Copy-2" x="54.9195046" y="7.59656652" width="15.5479876" height="2.27896996"></rect>
            <rect id="Rectangle-3-Copy-3" x="70.4674923" y="7.59656652" width="10.0309598" height="2.27896996"></rect>
            <rect id="Rectangle-3-Copy" transform="translate(48.900929, 4.937768) rotate(-330.000000) translate(-48.900929, -4.937768) " x="41.126935" y="3.79828326" width="15.5479876" height="2.27896996"></rect>
        </g>
        <g id="pink" transform="translate(59.000000, 34.500000) scale(-1, -1) rotate(-360.000000) translate(-59.000000, -34.500000) translate(37.000000, 10.000000)" fill="#E9707F">
            <rect id="Rectangle-3" x="1.42108547e-14" y="38.9957082" width="15.5479876" height="2.27896996"></rect>
            <rect id="Rectangle-3-Copy-2" x="27.5851393" y="46.5922747" width="15.5479876" height="2.27896996"></rect>
            <rect id="Rectangle-3-Copy-4" transform="translate(42.004644, 23.296137) rotate(-90.000000) translate(-42.004644, -23.296137) " x="18.9334365" y="22.1566524" width="46.1424149" height="2.27896996"></rect>
            <rect id="Rectangle-3-Copy" transform="translate(21.720141, 43.907424) rotate(-330.000000) translate(-21.720141, -43.907424) " x="13.9461468" y="42.7679388" width="15.5479876" height="2.27896996"></rect>
        </g>
    </g>
</svg>