<?xml version="1.0" standalone="no"?>
<!DOCTYPE svg PUBLIC "-//W3C//DTD SVG 20010904//EN"
 "http://www.w3.org/TR/2001/REC-SVG-20010904/DTD/svg10.dtd">
<svg version="1.0" xmlns="http://www.w3.org/2000/svg"
 width="560.000000pt" height="560.000000pt" viewBox="0 0 560.000000 560.000000"
 preserveAspectRatio="xMidYMid meet">
<metadata>
Created by potrace 1.11, written by Peter Selinger 2001-2013
</metadata>
<g transform="translate(0.000000,560.000000) scale(0.100000,-0.100000)"
fill="#000000" stroke="none">
<path d="M2687 5434 c-1 -1 -45 -4 -97 -8 -52 -3 -122 -10 -155 -16 -33 -5
-78 -12 -100 -16 -84 -13 -318 -76 -407 -110 -51 -19 -106 -40 -123 -46 -72
-26 -307 -154 -409 -222 -147 -99 -250 -182 -372 -304 -432 -430 -687 -986
-733 -1599 -94 -1269 815 -2420 2074 -2627 152 -25 184 -27 375 -31 559 -10
1089 164 1548 507 126 94 379 347 469 468 244 328 392 668 472 1080 26 139 31
199 32 414 1 226 -6 317 -38 480 -68 358 -212 693 -429 1001 -99 140 -366 414
-504 516 -438 327 -933 499 -1473 512 -70 1 -129 2 -130 1z m239 -1519 c202
-28 380 -116 530 -261 138 -133 232 -296 281 -484 18 -69 25 -303 12 -395 -51
-352 -347 -680 -711 -786 -96 -28 -369 -36 -465 -13 -353 82 -612 315 -737
662 -34 95 -44 187 -40 352 2 96 9 154 22 200 114 386 386 639 777 724 83 18
207 18 331 1z"/>
</g>
</svg>
