
<svg width="521px" height="521px" viewBox="0 0 521 521" version="1.1" xmlns="http://www.w3.org/2000/svg" xmlns:xlink="http://www.w3.org/1999/xlink">
    <g id="Page-1" stroke="none" stroke-width="1" fill="none" fill-rule="evenodd">
        <g id="Group">
            <rect id="Rectangle" fill="#FFFC00" x="0" y="0" width="521" height="521"></rect>
            <g id="snap">
                <path d="M0.559442718,388.495031 L0.559442718,388.518299 C0.871031068,400.075394 0.967137864,411.699258 2.91658835,423.185538 C4.98237864,435.337483 7.93538641,447.186946 13.569268,458.215959 C21.1859845,473.143874 31.6464505,485.75005 44.8505126,496.047641 C54.3306893,503.441794 64.6869553,509.31139 76.1509786,513.014031 C92.8674913,518.406128 110.113097,520.47293 127.610604,520.574095 C138.527324,520.642887 149.436963,520.916033 160.35773,520.870509 C239.66607,520.536664 318.976433,521.443103 398.286796,520.38087 C408.810996,520.238227 419.163216,518.954443 429.492167,517.065691 C449.289155,513.441959 466.78565,504.994678 481.755043,491.63988 C499.200955,476.079683 510.971509,457.036375 516.284697,434.052687 C519.76174,419.029678 520.631759,403.788151 520.780472,388.493008 L520.780472,385.44187 C520.780472,384.258239 520.330287,125.556953 520.28881,122.137575 C520.17247,112.7444 519.480501,103.422041 517.719217,94.1796019 C515.577553,82.9168971 512.551707,71.9425126 507.158598,61.7531689 C501.464017,50.9881961 494.33087,41.3087243 485.508266,32.8503146 C471.993627,19.8910718 456.398023,10.7265301 438.241932,5.87870097 C421.843078,1.50128932 405.113414,0.532128155 388.26134,0.547302913 C388.234025,0.543256311 388.170291,0.372287379 388.166245,0.289332039 L133.092738,0.289332039 C133.08768,0.376333981 133.084645,0.463335922 133.078575,0.547302913 C123.514431,0.722318447 113.936124,0.650491262 104.42054,1.83007573 C93.9964932,3.126 83.6726,5.07747379 73.8059728,8.72143883 C58.2649981,14.4696369 44.762499,23.4227437 33.2286718,35.3753942 C20.1611825,48.9173476 10.9501049,64.5787087 6.06282136,82.815732 C1.70260777,99.0871184 0.753679612,115.682233 0.73041165,132.394699" id="Shape" fill="#FFFC00" fill-rule="nonzero"></path>
                <path d="M263.030138,439.549996 C261.949695,439.549996 260.918823,439.510542 260.134794,439.473111 C259.512629,439.526728 258.870231,439.549996 258.226821,439.549996 C235.528419,439.549996 220.351639,428.819419 206.958398,419.344301 C197.358847,412.563208 188.305586,406.161483 177.699443,404.397165 C172.490454,403.533216 167.308781,403.095171 162.302122,403.095171 C153.281235,403.095171 146.152134,404.494283 140.947192,405.512004 C137.744307,406.136192 134.982501,406.673379 132.847918,406.673379 C130.612171,406.673379 127.895889,406.17767 126.763852,402.312153 C125.866518,399.263039 125.223109,396.309019 124.601955,393.464258 C123.04806,386.35539 121.921082,382.016421 119.259429,381.60468 C90.7905728,377.212093 73.9698602,370.741577 70.6192738,362.905332 C70.2787885,362.122579 70.0788002,361.285984 70.0284699,360.43387 C69.8977038,358.102418 71.5453723,356.047304 73.8494738,355.667984 C96.4578388,351.945111 116.560346,339.995495 133.601598,320.139831 C146.802625,304.767802 153.285282,290.08066 153.981297,288.458984 C154.012267,288.38441 154.046356,288.311169 154.083474,288.239456 C157.368303,281.574703 158.021829,275.815377 156.031913,271.126377 C152.363668,262.475753 140.214757,258.621365 132.177194,256.070994 C130.178173,255.438713 128.287398,254.839816 126.78105,254.24193 C119.655996,251.427518 107.938049,245.481037 109.499025,237.273517 C110.63612,231.288592 118.552285,227.120592 124.949963,227.120592 C126.726421,227.120592 128.30055,227.432181 129.625812,228.054346 C136.855066,231.441351 143.358967,233.158122 148.952383,233.158122 C155.908491,233.158122 159.268183,230.509621 160.080538,229.756953 C159.869869,225.958136 159.640896,222.160356 159.393627,218.363746 C157.760823,192.389619 155.724371,160.065363 163.99259,141.528891 C188.739584,86.0428971 241.220977,81.7282078 256.711369,81.7282078 C259.26817,81.7067447 261.824949,81.6828023 264.381703,81.6563806 C279.914584,81.6563806 332.505235,85.9761282 357.267404,141.495507 C365.535623,160.044118 363.497148,192.395689 361.859285,218.39713 L361.7824,219.64146 C361.557814,223.17212 361.350425,226.513602 361.17541,229.752907 C361.940217,230.457016 365.014623,232.884977 371.269658,233.130808 C376.602068,232.926454 382.729635,231.217777 389.477344,228.058392 C391.563367,227.079115 393.872965,226.875773 395.441023,226.875773 C397.81132,226.875773 400.223095,227.337085 402.233245,228.175744 L402.34048,228.217221 C408.066421,230.249627 411.81661,234.311404 411.897542,238.578546 C411.969369,242.556355 409.013326,248.501825 394.473885,254.243953 C392.984736,254.833746 391.084856,255.436689 389.077742,256.073017 C381.033097,258.626423 368.894303,262.478788 365.226058,271.124353 C363.233107,275.813353 363.888656,281.570656 367.174497,288.233386 C367.210917,288.306225 367.242278,288.380076 367.277685,288.456961 C368.289336,290.82827 392.776336,346.662272 447.409509,355.662926 C449.712762,356.043929 451.359861,358.097788 451.231524,360.428812 C451.177933,361.289136 450.973145,362.133285 450.626557,362.92253 C447.299239,370.715274 430.479538,377.176685 402.002588,381.575342 C399.329808,381.988095 398.203841,386.307843 396.664109,393.37928 C396.026769,396.299915 395.378301,399.162885 394.493107,402.171534 C393.664565,405.00112 391.821338,406.384047 388.861249,406.384047 L388.415111,406.384047 C386.487917,406.384047 383.757472,406.034016 380.313814,405.360256 C374.294493,404.188765 367.54375,403.098206 358.958883,403.098206 C353.953237,403.098206 348.772575,403.537262 343.557517,404.4002 C332.962501,406.164518 323.910252,412.556126 314.327899,419.330138 C300.908355,428.818408 285.726517,439.549996 263.030138,439.549996" id="Shape" fill="#FFFFFF" fill-rule="nonzero"></path>
                <path d="M264.380691,86.2280291 C279.004099,86.2280291 329.360014,90.156268 353.090299,143.357955 C360.904287,160.876707 358.901219,192.611171 357.294718,218.103751 C357.043829,222.149342 356.794963,226.070499 356.592633,229.814617 L356.507654,231.424153 L357.582027,232.622959 C358.016025,233.104505 362.077802,237.34939 371.111841,237.69841 L371.257518,237.706503 L371.409266,237.703468 C377.38205,237.475847 384.109526,235.62048 391.415666,232.198066 C392.492062,231.694264 393.924559,231.448433 395.440012,231.448433 C397.166899,231.448433 399.002033,231.773173 400.515462,232.410513 L400.744095,232.501561 C404.575216,233.844021 407.283404,236.375171 407.324882,238.665548 C407.347138,239.96046 406.378988,244.625181 392.798592,249.989963 C391.471307,250.513998 389.724186,251.071417 387.698862,251.709769 C378.861083,254.516087 365.50932,258.750856 361.015569,269.339802 C358.485431,275.304493 359.178412,282.343557 363.073266,290.258711 C364.67572,293.998783 389.902237,350.821167 446.666957,360.174887 C446.647587,360.490236 446.568994,360.799116 446.435289,361.085373 C445.47321,363.35147 439.357783,371.180633 401.303538,377.052252 C395.348963,377.964761 393.890163,384.639631 392.198683,392.39899 C391.587647,395.176983 390.966493,397.981278 390.11266,400.877633 C389.851654,401.752711 389.803095,401.802282 388.865295,401.802282 L388.418146,401.802282 C386.730713,401.802282 384.169214,401.45225 381.200019,400.86954 C375.792748,399.816412 368.405676,398.524534 358.961918,398.524534 C353.691219,398.524534 348.261691,398.982812 342.813953,399.892285 C331.168845,401.828584 321.698784,408.526722 311.669282,415.616369 C298.200167,425.133977 284.278845,434.982394 263.038231,434.982394 C262.110548,434.982394 261.20512,434.951033 260.29767,434.905509 L260.05892,434.895392 L259.819159,434.913602 C259.298159,434.959126 258.773113,434.982394 258.236938,434.982394 C236.999359,434.982394 223.071967,425.137012 209.608922,415.616369 C199.577396,408.526722 190.102278,401.828584 178.459192,399.892285 C173.016513,398.985847 167.581926,398.524534 162.314262,398.524534 C152.872528,398.524534 145.476351,399.969171 140.080208,401.024322 C137.111014,401.60501 134.54041,402.102742 132.858035,402.102742 C131.480167,402.102742 131.453864,402.02181 131.162509,401.026346 C130.308676,398.127967 129.684487,395.256903 129.076485,392.482957 C127.380959,384.715505 125.921148,378.004216 119.969608,377.090695 C81.9183981,371.214017 75.8019592,363.371703 74.8368447,361.111676 C74.7056386,360.81802 74.6265608,360.503762 74.6031534,360.182981 C131.366862,350.837353 156.58832,294.012946 158.195833,290.258711 C162.097769,282.349627 162.789738,275.311575 160.251507,269.339802 C155.757755,258.756926 142.408016,254.516087 133.576307,251.714827 C131.545924,251.072429 129.797792,250.513998 128.469495,249.989963 C117.001425,245.458781 113.4738,240.894214 113.997835,238.128361 C114.605837,234.938627 120.135518,231.695276 124.961091,231.695276 C126.045581,231.695276 126.996532,231.870291 127.699629,232.199078 C135.536885,235.872381 142.691278,237.734829 148.966546,237.734829 C158.83115,237.734829 163.221713,233.144971 163.693142,232.620936 L164.762456,231.425165 L164.676466,229.823722 C164.477171,226.081627 164.23134,222.161482 163.972357,218.123984 C162.370915,192.625334 160.367847,160.912115 168.1788,143.392351 C191.821072,90.3859126 241.931155,86.2998563 256.723509,86.2998563 C257.087703,86.2998563 263.518765,86.234099 263.518765,86.234099 C263.781794,86.2320757 264.074161,86.2280291 264.380691,86.2280291 M264.380691,77.084732 L264.363493,77.084732 C264.026614,77.084732 263.709967,77.084732 263.408495,77.0887786 L256.698217,77.1555476 C248.032419,77.1555476 230.693742,78.3796447 212.069256,86.6003165 C201.420623,91.2974097 191.842317,97.6485515 183.601412,105.477715 C173.776262,114.806144 165.772083,126.307598 159.815485,139.667454 C151.092023,159.228728 153.162872,192.177173 154.826025,218.655101 L154.832095,218.696579 C155.010146,221.532235 155.197301,224.493336 155.36827,227.378563 C154.088532,227.966332 152.013637,228.586474 148.955417,228.586474 C144.03475,228.586474 138.183363,227.013357 131.568181,223.91366 C129.621765,223.007221 127.400181,222.548944 124.948951,222.548944 C121.010596,222.548944 116.858783,223.708295 113.257307,225.82568 C108.726124,228.48632 105.798408,232.246625 105.00325,236.415637 C104.479216,239.173396 104.504507,244.624169 110.559235,250.151827 C113.889588,253.194872 118.78193,256.00119 125.096652,258.496932 C126.753736,259.149447 128.720384,259.772623 130.803373,260.433231 C138.031616,262.730689 148.971604,266.201662 151.824458,272.915986 C153.270107,276.32019 152.647942,280.799779 149.980219,286.214132 C149.910416,286.361833 149.840612,286.506499 149.776878,286.658247 C149.1102,288.215177 142.890573,302.303421 130.132649,317.161532 C122.883161,325.610837 114.898204,332.672157 106.41248,338.155303 C96.0552019,344.849394 84.8481379,349.225794 73.1059107,351.16007 C68.495374,351.917345 65.19752,356.028864 65.4588447,360.693864 C65.5377534,362.039359 65.8533883,363.380808 66.4006913,364.678755 L66.4138427,364.702023 C68.2783146,369.063249 72.6010971,372.767913 79.629033,376.035544 C88.216934,380.024482 101.060849,383.380126 117.800629,386.005359 C118.646369,387.613883 119.524482,391.656439 120.132483,394.424315 C120.768812,397.366194 121.432454,400.391029 122.378348,403.604031 C123.399103,407.08512 126.046592,411.245027 132.847918,411.245027 C135.425604,411.245027 138.38974,410.66434 141.82227,409.998674 C146.849161,409.012315 153.723326,407.666819 162.303134,407.666819 C167.059915,407.666819 171.989687,408.085643 176.951833,408.910138 C186.516988,410.502476 194.762951,416.327559 204.303827,423.073245 C218.26865,432.94493 234.075689,444.11861 258.226821,444.11861 C258.885406,444.11861 259.546014,444.097365 260.198528,444.051841 C260.99672,444.089272 261.986115,444.11861 263.030138,444.11861 C287.188351,444.11861 302.991344,432.940883 316.940992,423.077291 L316.963249,423.057058 C326.506148,416.319466 334.743006,410.502476 344.305126,408.910138 C349.265249,408.086654 354.19401,407.666819 358.952814,407.666819 C367.149206,407.666819 373.638944,408.711854 379.433678,409.841868 C383.215227,410.586443 386.154072,410.944567 388.409041,410.944567 L388.629581,410.948614 L388.858214,410.948614 C393.832499,410.948614 397.487592,408.218169 398.882658,403.440144 C399.80933,400.294922 400.47095,397.340903 401.123464,394.349452 C401.692012,391.755581 402.600474,387.597697 403.446214,385.971975 C420.197122,383.341683 433.035979,379.99312 441.624891,376.005194 C448.636641,372.752738 452.954365,369.05212 454.829965,364.709105 C455.392443,363.407111 455.721229,362.057569 455.79508,360.683748 C456.057286,356.018115 452.758446,351.905909 448.147002,351.149953 C395.961012,342.548901 372.451266,288.927379 371.47907,286.649142 C371.4155,286.498902 371.346322,286.351097 371.271682,286.206039 C368.603959,280.789662 367.987864,276.315132 369.434524,272.904858 C372.281309,266.196604 383.214216,262.725631 390.447517,260.429184 C392.541633,259.769588 394.515363,259.142365 396.159295,258.492885 C403.280303,255.680497 408.369917,252.629359 411.727584,249.164456 C415.737767,245.033887 416.518761,241.076311 416.470202,238.486485 C416.347792,232.220322 411.557627,226.652198 403.937876,223.9258 C401.364237,222.861544 398.429439,222.300078 395.441023,222.300078 C393.406594,222.300078 390.393899,222.579293 387.542056,223.910625 C381.436746,226.767526 375.967763,228.329515 371.272693,228.552078 C368.77594,228.425621 367.024773,227.884388 365.890713,227.367435 C366.033355,224.923287 366.191173,222.412371 366.354049,219.794219 L366.421829,218.673311 C368.094087,192.178184 370.172017,159.204449 361.444509,139.629012 C355.462619,126.221608 347.430115,114.690816 337.565511,105.342153 C329.292233,97.507932 319.681553,91.1578019 308.994478,86.4637437 C290.396295,78.3037709 273.058629,77.084732 264.380691,77.084732" id="Shape" fill="#020202" fill-rule="nonzero"></path>
                <polygon id="Shape" points="0.559442718 0.448161165 520.781483 0.448161165 520.781483 520.66919 0.559442718 520.66919"></polygon>
            </g>
        </g>
    </g>
</svg>